<svg width="470" height="300" viewBox="0 0 470 300" fill="none" xmlns="http://www.w3.org/2000/svg">
<rect width="470" height="300" rx="45" fill="#1556F7"/>
<path d="M164.656 199.188C164.656 203.344 168.344 207.812 174.781 208.906L173.031 212.219C168.078 211.234 164.391 208.453 162.562 204.781C160.672 208.422 156.984 211.219 152.062 212.219L150.344 208.906C156.656 207.781 160.375 203.312 160.406 199.188V197.125H164.656V199.188ZM175.719 217.094V220.375H149.688V217.094H175.719ZM201.344 195.438V223.938H197.406V208.688H192.406V205.469H197.406V195.438H201.344ZM191.938 197.812V201.031H182.625V205.75H190.906V208.875H182.625V214.25C186.562 214.219 189.719 214.078 193.25 213.531L193.656 216.719C189.5 217.344 185.781 217.5 180.906 217.5H178.656V197.812H191.938ZM228.812 195.438V223.938H224.781V195.438H228.812ZM220.562 197.938V201.188H210.719V213.781C215.812 213.766 218.938 213.656 222.531 213L222.906 216.281C218.969 217.031 215.344 217.156 209.188 217.156H206.719V197.938H220.562ZM258.656 208.188V211.156H232.625V208.188H258.656ZM255.531 212.562V219.281H239.594V220.906H256.375V223.625H235.625V216.75H251.594V215.312H235.594V212.562H255.531ZM255.5 195.938V202.625H239.844V204.156H256V206.844H235.875V200.094H251.5V198.656H235.812V195.938H255.5ZM293.625 210.094V213.219H267.625V210.094H278.625V208.344H270.875V196.125H290.594V199.188H274.875V200.781H289.938V203.656H274.875V205.281H290.844V208.344H282.625V210.094H293.625ZM280.625 214.531C286.906 214.5 290.5 216.188 290.531 219.188C290.5 222.25 286.906 223.875 280.625 223.875C274.25 223.875 270.656 222.25 270.656 219.188C270.656 216.188 274.25 214.5 280.625 214.531ZM280.625 217.469C276.531 217.469 274.625 218 274.656 219.188C274.625 220.406 276.531 220.938 280.625 220.938C284.625 220.938 286.5 220.406 286.531 219.188C286.5 218 284.625 217.469 280.625 217.469ZM317.906 195.469V204.188H321.75V207.438H317.906V216.688H313.906V195.469H317.906ZM312.219 198.438V201.594H295.344V198.438H301.812V195.406H305.781V198.438H312.219ZM303.781 202.594C307.906 202.594 310.781 204.812 310.781 208.094C310.781 211.375 307.906 213.531 303.781 213.531C299.625 213.531 296.719 211.375 296.719 208.094C296.719 204.812 299.625 202.594 303.781 202.594ZM303.781 205.625C301.875 205.656 300.594 206.531 300.625 208.094C300.594 209.656 301.875 210.5 303.781 210.5C305.688 210.5 307 209.656 307 208.094C307 206.531 305.688 205.656 303.781 205.625ZM318.938 220.188V223.375H299.469V215.062H303.438V220.188H318.938ZM169.969 235.469V256.219H166V246.031H161.344V242.812H166V235.469H169.969ZM170.656 260.188V263.375H151.094V254.406H155.094V260.188H170.656ZM156.75 241.031C156.75 244.312 158.75 247.844 163.281 249.312L161.312 252.469C158.156 251.453 156 249.375 154.75 246.781C153.5 249.656 151.234 251.938 147.875 253.062L145.844 249.812C150.531 248.344 152.656 244.625 152.688 241V240.562H146.969V237.375H162.406V240.562H156.75V241.031ZM186.469 253.156C192.688 253.156 196.594 255.125 196.625 258.531C196.594 261.875 192.688 263.875 186.469 263.875C180.312 263.875 176.344 261.875 176.344 258.531C176.344 255.125 180.312 253.156 186.469 253.156ZM186.469 256.125C182.562 256.125 180.312 256.938 180.312 258.531C180.312 260.062 182.562 260.844 186.469 260.844C190.375 260.844 192.656 260.062 192.656 258.531C192.656 256.938 190.375 256.125 186.469 256.125ZM196.469 236.719V239.031C196.469 241.281 196.469 243.719 195.656 246.656L191.75 246.281C192.375 243.703 192.453 241.781 192.5 239.844H176.625V236.719H196.469ZM199.531 248.125V251.344H173.719V248.125H183.406V243.156H187.344V248.125H199.531ZM232.469 235.438V249.844H228.5V235.438H232.469ZM232.5 251.062V258.781H217.375V260.531H233.281V263.688H213.469V255.812H228.531V254.156H213.406V251.062H232.5ZM219.594 238.25C219.562 241.688 221.625 245 226.281 246.344L224.344 249.406C221.078 248.453 218.828 246.484 217.562 243.969C216.25 246.719 213.922 248.906 210.531 249.906L208.562 246.781C213.312 245.375 215.438 241.781 215.438 238.25V236.062H219.594V238.25ZM250 237.094V245.969H241.406V249C245.641 249 248.141 248.859 251.031 248.312L251.406 251.5C248.094 252.094 245.094 252.188 239.594 252.188H237.469V243H246V240.219H237.406V237.094H250ZM260.312 235.469V252.969H256.344V248.594H251.625V245.438H256.344V242.562H251.625V239.406H256.344V235.469H260.312ZM260.312 254.25V263.875H256.344V257.438H240.719V254.25H260.312ZM297.625 239.594V242.812H293.938V245.719H297.625V248.969H293.938V253.5H289.938V235.438H293.938V239.594H297.625ZM284.656 253.75C290.5 253.75 294.25 255.656 294.25 258.844C294.25 261.969 290.5 263.875 284.656 263.875C278.688 263.875 275 261.969 275.031 258.844C275 255.656 278.688 253.75 284.656 253.75ZM284.656 256.781C280.938 256.781 278.938 257.438 278.969 258.844C278.938 260.188 280.938 260.906 284.656 260.906C288.281 260.906 290.25 260.188 290.25 258.844C290.25 257.438 288.281 256.781 284.656 256.781ZM288.25 238.156V241.25H271.375V238.156H277.844V235.281H281.812V238.156H288.25ZM279.812 242.219C283.938 242.219 286.812 244.312 286.812 247.344C286.812 250.406 283.938 252.438 279.812 252.438C275.625 252.438 272.75 250.406 272.75 247.344C272.75 244.312 275.625 242.219 279.812 242.219ZM279.812 245.125C277.906 245.125 276.625 245.906 276.656 247.344C276.625 248.75 277.906 249.5 279.812 249.469C281.719 249.5 283.031 248.75 283.031 247.344C283.031 245.906 281.719 245.125 279.812 245.125ZM309.406 239.906C309.406 243.344 311.406 246.656 315.906 248.062L313.781 251.156C310.766 250.156 308.656 248.219 307.438 245.719C306.203 248.594 304 250.844 300.75 251.938L298.594 248.812C303.344 247.219 305.375 243.438 305.406 239.531V236.938H309.406V239.906ZM321.594 235.438V242.094H325.438V245.406H321.594V252.312H317.594V235.438H321.594ZM312.281 252.875C318.156 252.875 321.875 254.906 321.875 258.375C321.875 261.875 318.156 263.875 312.281 263.875C306.281 263.875 302.531 261.875 302.531 258.375C302.531 254.906 306.281 252.875 312.281 252.875ZM312.281 256C308.531 256 306.5 256.812 306.531 258.375C306.5 260 308.531 260.75 312.281 260.75C315.969 260.75 317.938 260 317.938 258.375C317.938 256.812 315.969 256 312.281 256Z" fill="white"/>
<path d="M287.317 120C290.681 120 293.907 118.736 296.285 116.485C298.664 114.235 300 111.183 300 108V42C300 38.8174 298.664 35.7652 296.285 33.5147C293.907 31.2643 290.681 30 287.317 30H220.478C222.698 33.66 223.902 37.8 223.902 42H287.317V108H230.244V120M255.61 60V72H217.561V150H204.878V114H192.195V150H179.512V102H170V72C170 68.8174 171.336 65.7652 173.715 63.5147C176.093 61.2643 179.319 60 182.683 60H255.61ZM211.22 42C211.22 45.1826 209.883 48.2348 207.505 50.4853C205.126 52.7357 201.9 54 198.537 54C195.173 54 191.947 52.7357 189.568 50.4853C187.19 48.2348 185.854 45.1826 185.854 42C185.854 38.8174 187.19 35.7652 189.568 33.5147C191.947 31.2643 195.173 30 198.537 30C201.9 30 205.126 31.2643 207.505 33.5147C209.883 35.7652 211.22 38.8174 211.22 42Z" fill="white"/>
</svg>
