<svg width="470" height="300" viewBox="0 0 470 300" fill="none" xmlns="http://www.w3.org/2000/svg">
<rect width="470" height="300" rx="45" fill="#1556F7"/>
<path d="M165.594 201.875C165.594 207.219 167.75 212.406 172.5 214.469L170.062 217.656C166.906 216.109 164.797 213.281 163.625 209.781C162.375 213.5 160.188 216.547 156.938 218.156L154.438 214.906C159.312 212.719 161.531 207.219 161.562 201.875V197.625H165.594V201.875ZM178.844 195.438V223.938H174.906V207.594H169.312V204.375H174.906V195.438H178.844ZM208.531 217.438V220.719H182.5V217.438H193.469V213.156H185.5V203.594H201.594V200.469H185.469V197.281H205.531V206.719H189.5V209.906H206.188V213.156H197.438V217.438H208.531ZM236.156 208.188V211.156H210.125V208.188H236.156ZM233.031 212.562V219.281H217.094V220.906H233.875V223.625H213.125V216.75H229.094V215.312H213.094V212.562H233.031ZM233 195.938V202.625H217.344V204.156H233.5V206.844H213.375V200.094H229V198.656H213.312V195.938H233ZM271.438 199.594V202.812H267.75V205.719H271.438V208.969H267.75V213.5H263.75V195.438H267.75V199.594H271.438ZM258.469 213.75C264.312 213.75 268.062 215.656 268.062 218.844C268.062 221.969 264.312 223.875 258.469 223.875C252.5 223.875 248.812 221.969 248.844 218.844C248.812 215.656 252.5 213.75 258.469 213.75ZM258.469 216.781C254.75 216.781 252.75 217.438 252.781 218.844C252.75 220.188 254.75 220.906 258.469 220.906C262.094 220.906 264.062 220.188 264.062 218.844C264.062 217.438 262.094 216.781 258.469 216.781ZM262.062 198.156V201.25H245.188V198.156H251.656V195.281H255.625V198.156H262.062ZM253.625 202.219C257.75 202.219 260.625 204.312 260.625 207.344C260.625 210.406 257.75 212.438 253.625 212.438C249.438 212.438 246.562 210.406 246.562 207.344C246.562 204.312 249.438 202.219 253.625 202.219ZM253.625 205.125C251.719 205.125 250.438 205.906 250.469 207.344C250.438 208.75 251.719 209.5 253.625 209.469C255.531 209.5 256.844 208.75 256.844 207.344C256.844 205.906 255.531 205.125 253.625 205.125ZM295.406 195.469V204.188H299.25V207.438H295.406V216.688H291.406V195.469H295.406ZM289.719 198.438V201.594H272.844V198.438H279.312V195.406H283.281V198.438H289.719ZM281.281 202.594C285.406 202.594 288.281 204.812 288.281 208.094C288.281 211.375 285.406 213.531 281.281 213.531C277.125 213.531 274.219 211.375 274.219 208.094C274.219 204.812 277.125 202.594 281.281 202.594ZM281.281 205.625C279.375 205.656 278.094 206.531 278.125 208.094C278.094 209.656 279.375 210.5 281.281 210.5C283.188 210.5 284.5 209.656 284.5 208.094C284.5 206.531 283.188 205.656 281.281 205.625ZM296.438 220.188V223.375H276.969V215.062H280.938V220.188H296.438ZM178.438 236.625V239.812H170.594C171.078 242.203 174.016 244.594 179.625 245.188L178.156 248.344C172.828 247.719 169.266 245.5 167.781 242.531C166.281 245.484 162.75 247.719 157.438 248.344L156 245.188C161.609 244.594 164.516 242.172 165 239.812H157.219V236.625H178.438ZM177.844 260.188V263.375H157.969V255.188H161.969V260.188H177.844ZM180.781 250.25V253.469H154.844V250.25H165.812V246.312H169.75V250.25H180.781ZM208.438 248.344V251.562H197.438V253.656C202.391 254.031 205.312 255.812 205.344 258.75C205.312 262.031 201.594 263.875 195.438 263.875C189.188 263.875 185.469 262.031 185.469 258.75C185.469 255.797 188.422 254.016 193.469 253.656V251.562H182.5V248.344H208.438ZM195.438 256.594C191.5 256.625 189.5 257.312 189.531 258.75C189.5 260.125 191.5 260.875 195.438 260.875C199.281 260.875 201.312 260.125 201.344 258.75C201.312 257.312 199.281 256.625 195.438 256.594ZM206.094 236.656V239.781H198.375C199.047 241.781 201.938 243.703 207.344 244.156L205.938 247.281C200.578 246.766 196.953 244.734 195.438 241.969C193.938 244.734 190.375 246.766 184.969 247.281L183.656 244.156C188.922 243.703 191.828 241.766 192.562 239.781H184.875V236.656H206.094ZM226.156 238.281V240.562C226.125 243.25 226.125 246.75 225.375 251.469L221.438 251.156C222.078 247.031 222.141 243.984 222.188 241.469H211.406V238.281H226.156ZM219.062 246.438V254.688C221.859 254.578 224.703 254.375 227.312 254.031L227.562 257C221.719 258 215.25 258.094 210.281 258.062L209.906 254.875C211.5 254.859 213.281 254.859 215.125 254.812V246.438H219.062ZM232.688 235.438V246.875H236.562V250.188H232.688V263.875H228.656V235.438H232.688ZM271.125 248.75V251.875H245.188V248.75H271.125ZM258.125 253.469C264.281 253.469 268 255.344 268.031 258.688C268 262.031 264.281 263.906 258.125 263.906C251.875 263.906 248.156 262.031 248.156 258.688C248.156 255.344 251.875 253.469 258.125 253.469ZM258.125 256.469C254.188 256.469 252.188 257.188 252.219 258.688C252.188 260.156 254.188 260.875 258.125 260.875C261.969 260.875 264 260.156 264.031 258.688C264 257.188 261.969 256.469 258.125 256.469ZM258.156 236.031C264.406 236.062 268.469 238.188 268.5 241.625C268.469 245.094 264.406 247.188 258.156 247.188C251.875 247.188 247.781 245.094 247.781 241.625C247.781 238.188 251.875 236.062 258.156 236.031ZM258.156 239.156C254.188 239.156 251.906 239.938 251.938 241.625C251.906 243.281 254.188 244.094 258.156 244.094C262.094 244.094 264.375 243.281 264.375 241.625C264.375 239.938 262.094 239.156 258.156 239.156ZM296.938 235.469V256.938H292.938V254.688H287.5V251.969H292.938V235.469H296.938ZM297.562 260.188V263.375H276.375V254.875H280.344V251.094C277.797 251.203 275.375 251.219 273.219 251.219L272.75 248.062C277.969 248.031 285 247.969 291 247.219L291.219 250.062C288.969 250.438 286.641 250.703 284.344 250.875V256.281H280.344V260.188H297.562ZM282 236.438C286.125 236.406 289.094 238.5 289.094 241.531C289.094 244.562 286.125 246.531 282 246.531C277.781 246.531 274.844 244.562 274.844 241.531C274.844 238.5 277.75 236.406 282 236.438ZM282 239.344C279.969 239.344 278.594 240.125 278.625 241.531C278.594 242.906 279.969 243.656 282 243.656C283.906 243.656 285.281 242.906 285.312 241.531C285.281 240.125 283.906 239.344 282 239.344Z" fill="white"/>
<path d="M272.832 41.631C272.583 41.9385 272.237 42.1675 271.842 42.2868C271.446 42.4061 271.021 42.4098 270.623 42.2975C270.225 42.1851 269.874 41.9622 269.619 41.6591C269.364 41.356 269.216 40.9876 269.197 40.6043L268.577 32.038C268.552 31.7342 268.606 31.4291 268.736 31.1488C268.866 30.8686 269.067 30.6214 269.323 30.4283C269.578 30.2352 269.881 30.1019 270.204 30.0397C270.528 29.9776 270.862 29.9885 271.18 30.0714L277.284 31.8227C277.6 31.9185 277.887 32.0821 278.121 32.3C278.354 32.5178 278.529 32.7838 278.63 33.076C278.73 33.3683 278.755 33.6784 278.7 33.9809C278.646 34.2834 278.514 34.5697 278.316 34.8162L272.832 41.631ZM283.424 48.3466L291.772 45.1172C292.074 45.0039 292.341 44.8237 292.55 44.5927C292.759 44.3616 292.903 44.0867 292.969 43.7921C293.036 43.4976 293.023 43.1925 292.931 42.9037C292.84 42.6149 292.673 42.3513 292.445 42.1362L288.091 37.8717C287.868 37.6538 287.59 37.4891 287.283 37.3914C286.975 37.2938 286.646 37.2661 286.325 37.3108C286.003 37.3556 285.698 37.4713 285.435 37.6483C285.172 37.8252 284.959 38.0581 284.815 38.3271L280.821 45.821C280.648 46.1619 280.591 46.5429 280.656 46.9143C280.722 47.2857 280.907 47.6303 281.188 47.903C281.469 48.1757 281.833 48.3639 282.232 48.443C282.631 48.5221 283.046 48.4885 283.424 48.3466ZM175.162 65.4749C173.66 66.6735 172.434 68.1379 171.556 69.7813C170.678 71.4248 170.166 73.2139 170.05 75.0431V114.148C169.705 120.308 171.14 126.443 174.209 131.923C177.279 137.403 181.872 142.032 187.518 145.337C193.106 148.416 199.504 150.022 206.013 149.978C210.384 149.972 214.722 149.292 218.849 147.966C222.793 149.306 226.962 149.994 231.165 149.999C237.021 150.048 242.808 148.82 248.052 146.415C253.296 144.01 257.85 140.495 261.343 136.158L276.921 112.695L288.141 95.2227C289.706 92.4342 290.184 89.2339 289.494 86.1589C288.804 83.0839 286.989 80.3212 284.353 78.3346C283.343 77.7011 282.27 77.1629 281.144 76.724C282.144 74.0908 282.204 71.2316 281.315 68.5646C280.427 65.8977 278.637 63.5629 276.207 61.9018C275.22 61.3429 274.187 60.8668 273.11 60.4817C273.254 59.4094 273.245 58.3288 273.079 57.2564C272.777 55.3398 272.017 53.5092 270.852 51.8978C269.688 50.2864 268.149 48.9346 266.347 47.9408C263.867 46.6619 261.033 46.0884 258.201 46.2924C255.369 46.4965 252.666 47.4691 250.432 49.0877C249.678 48.3466 248.816 47.7048 247.878 47.1707C244.983 45.5705 241.524 45.0815 238.242 45.8086C236.308 45.3315 234.293 45.1981 232.305 45.4153C229.753 45.6696 227.345 46.6309 225.397 48.1727C224.63 47.4191 223.755 46.7608 222.799 46.2143C219.725 44.544 216.06 44.065 212.604 44.8821C209.149 45.6992 206.185 47.7458 204.362 50.574L195.063 65.893C193.84 64.7337 192.382 63.8078 190.772 63.1685C189.162 62.5291 187.431 62.1887 185.678 62.1668C181.84 61.974 178.071 63.1572 175.162 65.4749ZM228.337 81.0879H228.364L228.53 81.1914L228.413 81.1251L228.337 81.0879ZM258.955 54.5611C259.893 54.4994 260.832 54.6605 261.684 55.029V55.0124C262.354 55.3638 262.929 55.8514 263.366 56.4381C263.802 57.0249 264.088 57.6955 264.201 58.3992C264.319 59.1994 264.133 60.0123 263.676 60.7011L257.016 70.0375C256.878 68.2537 256.303 66.5223 255.333 64.9737C254.364 63.4252 253.025 62.1002 251.419 61.0986C251.204 60.9744 250.989 60.8875 250.778 60.7964C250.634 60.7384 250.486 60.6722 250.338 60.6018C251.499 60.464 252.555 59.9109 253.277 59.0616L256.056 55.7494C256.154 55.6315 256.246 55.5085 256.329 55.3809C257.114 54.9054 258.018 54.6232 258.955 54.5611ZM269.224 68.017C270.048 68.2357 270.834 68.5634 271.557 68.99L271.544 68.9734C272.216 69.7222 272.657 70.6238 272.821 71.5839C272.985 72.5439 272.867 73.5271 272.477 74.4303C271.907 75.4405 271.486 76.1692 271.162 76.7323L271.131 76.782L264.825 85.5262C264.332 83.1207 263.129 80.885 261.352 79.0674L269.224 68.017ZM269.246 108.447L253.861 131.632L253.847 131.616C251.158 134.885 247.655 137.509 243.634 139.266C239.613 141.023 235.193 141.861 230.747 141.71C232.875 140.048 234.769 138.147 236.384 136.05L252.12 112.355L258.766 102.005C259.737 102.502 260.874 102.646 261.954 102.408C263.034 102.17 263.978 101.569 264.601 100.721L276.656 84.0523C277.625 84.2727 278.54 84.6635 279.349 85.2033C280.055 85.9947 280.529 86.9406 280.725 87.95C280.921 88.9593 280.832 89.9982 280.466 90.9665L269.246 108.447ZM211.933 141.292C205.178 142.538 198.163 141.471 192.199 138.29L192.186 138.273C187.934 135.75 184.478 132.239 182.164 128.092C179.85 123.946 178.76 119.311 179.004 114.653V75.3039C179.077 74.593 179.302 73.9026 179.667 73.2728C180.032 72.6431 180.529 72.0866 181.129 71.6357C181.729 71.1849 182.421 70.8487 183.163 70.6468C183.906 70.445 184.684 70.3814 185.454 70.4598C186.605 70.4805 187.709 70.8917 188.553 71.6148C189.397 72.3379 189.924 73.3225 190.031 74.3806C188.29 77.2664 186.845 79.6429 186.131 80.7815C185.595 81.7277 185.475 82.8286 185.798 83.8542C186.12 84.8797 186.86 85.7507 187.862 86.2851C188.864 86.8195 190.052 86.976 191.176 86.722C192.3 86.4679 193.275 85.8229 193.896 84.9217C195.317 82.6254 196.721 80.3206 198.11 78.0075L198.429 77.4817V77.2333C198.447 77.2001 198.474 77.1794 198.496 77.1505C198.523 77.1215 198.554 77.0925 198.577 77.0552L212.041 54.8675C212.389 54.1912 212.942 53.6222 213.632 53.2291C214.323 52.8361 215.122 52.6358 215.934 52.6524C216.745 52.6691 217.534 52.9019 218.205 53.3229C218.876 53.7438 219.401 54.3349 219.716 55.0248L215.12 61.8314L214.622 62.5767C211.184 67.7006 207.716 72.807 204.218 77.8957C203.6 78.8173 203.398 79.9258 203.655 80.9833C203.913 82.0408 204.61 82.9629 205.597 83.5516C206.583 84.1403 207.781 84.3486 208.932 84.1318C210.083 83.9149 211.096 83.2903 211.754 82.392C215.277 77.2654 218.773 72.1231 222.242 66.9654L226.089 61.2684L227.911 58.5648L227.969 58.482L228.099 58.2832C228.117 58.2625 228.14 58.2501 228.162 58.2335C228.188 58.2137 228.212 58.1915 228.234 58.1673L231.039 54.8013C231.134 54.682 231.224 54.5591 231.308 54.4328C231.896 53.9369 232.658 53.6531 233.454 53.6337C234.584 53.4586 235.744 53.6029 236.784 54.0477C237.466 54.4065 238.051 54.9032 238.495 55.5006C238.938 56.098 239.23 56.7804 239.346 57.4966C239.46 58.2629 239.303 59.0428 238.898 59.7199C236.813 60.4834 234.889 61.5762 233.211 62.9493C231.829 64.2494 230.608 65.6943 229.576 67.2552C228.324 68.9983 226.91 71.1346 225.51 73.2876C224.464 74.9023 223.427 76.5211 222.462 78.0323L222.099 78.5995C220.573 80.9719 219.28 82.98 218.423 84.2055C218.102 84.6619 217.881 85.1723 217.773 85.7075C217.665 86.2427 217.673 86.7922 217.795 87.3247C217.918 87.8572 218.153 88.3622 218.487 88.8109C218.821 89.2596 219.248 89.6432 219.743 89.9398C220.237 90.2364 220.791 90.4401 221.371 90.5395C221.951 90.6388 222.547 90.6318 223.124 90.5187C223.701 90.4057 224.248 90.1889 224.735 89.8807C225.221 89.5725 225.637 89.179 225.959 88.7225C226.986 87.2569 228.539 84.8224 230.213 82.2099L230.837 81.2328L230.842 81.2286C231.618 80.0155 232.412 78.7734 233.198 77.5686C234.58 75.4364 235.918 73.4283 237.058 71.8343C237.647 70.9694 238.287 70.1346 238.974 69.3336C239.026 69.273 239.086 69.215 239.144 69.1597C240.132 68.3377 241.281 67.6969 242.528 67.2718C242.861 67.227 243.188 67.1492 243.502 67.0399C244.66 67.1641 245.769 67.5574 246.725 68.1743C247.415 68.9351 247.87 69.8532 248.043 70.8323C248.216 71.8114 248.1 72.8153 247.708 73.7389L246.285 76.1816C244.396 76.9227 242.636 77.9247 241.07 79.1543C239.863 80.2432 238.808 81.4646 237.928 82.7895C236.959 84.1558 235.927 85.7705 234.926 87.3769C234.324 88.3416 233.732 89.3104 233.162 90.2461L233.13 90.2958L232.951 90.5939C231.636 92.7386 230.46 94.6555 229.5 96.026C229.166 96.4823 228.934 96.9955 228.817 97.5355C228.701 98.0755 228.702 98.6315 228.822 99.171C228.941 99.7105 229.176 100.223 229.513 100.677C229.849 101.132 230.28 101.52 230.782 101.819C231.283 102.118 231.844 102.322 232.431 102.419C233.019 102.515 233.621 102.503 234.204 102.382C234.786 102.262 235.336 102.035 235.822 101.715C236.309 101.396 236.721 100.99 237.035 100.522C238.436 98.455 239.773 96.3508 241.043 94.2125C241.6 93.2997 242.161 92.3888 242.726 91.4799C243.59 90.0634 244.499 88.6703 245.45 87.3024C245.793 86.8238 246.151 86.3543 246.523 85.8947C246.684 85.6936 246.859 85.5028 247.048 85.3233C248.047 84.561 249.171 83.9502 250.378 83.514C250.707 83.4636 251.029 83.3803 251.339 83.2656C252.53 83.4652 253.66 83.9049 254.646 84.5533C255.362 85.36 255.841 86.3228 256.037 87.3494C256.234 88.3759 256.141 89.4318 255.768 90.4159L244.44 108.082L228.898 131.508C224.721 136.563 218.689 140.039 211.933 141.287M295.196 50.9839L287.427 55.7949C287.077 56.0188 286.808 56.3356 286.657 56.7034C286.506 57.0712 286.48 57.4726 286.581 57.8545C286.683 58.2365 286.908 58.5809 287.227 58.8423C287.545 59.1037 287.942 59.2697 288.365 59.3183L297.66 60.4362C297.995 60.4747 298.335 60.4375 298.651 60.3278C298.967 60.2182 299.249 60.0394 299.473 59.8067C299.698 59.5741 299.857 59.2947 299.939 58.9925C300.02 58.6903 300.02 58.3745 299.94 58.0721L298.405 52.1432C298.322 51.8423 298.162 51.5641 297.939 51.3314C297.716 51.0988 297.436 50.9184 297.123 50.8051C296.809 50.6919 296.471 50.649 296.136 50.6801C295.801 50.7112 295.479 50.8153 295.196 50.9839Z" fill="white"/>
</svg>
