<svg width="470" height="300" viewBox="0 0 470 300" fill="none" xmlns="http://www.w3.org/2000/svg">
<rect width="470" height="300" rx="45" fill="#1556F7"/>
<path d="M177.859 200.312C177.859 204 179.828 207.656 184.359 209.156L182.203 212.281C179.188 211.172 177.109 209.078 175.922 206.438C174.688 209.406 172.469 211.75 169.172 212.938L167.016 209.812C171.766 208.25 173.828 204.344 173.828 200.281V197.188H177.859V200.312ZM191.172 195.469V216.469H187.203V204.719H181.859V201.5H187.203V195.469H191.172ZM191.766 220.188V223.375H172.234V214.25H176.266V220.188H191.766ZM219.453 198.375V201.594H196.109V198.375H205.828V195.406H209.797V198.375H219.453ZM220.891 213.812V217.062H209.797V223.906H205.828V217.062H194.859V213.812H220.891ZM207.828 202.688C213.922 202.688 217.609 204.406 217.641 207.562C217.609 210.719 213.922 212.438 207.828 212.438C201.672 212.438 197.984 210.719 198.016 207.562C197.984 204.406 201.672 202.688 207.828 202.688ZM207.828 205.625C204.016 205.656 202.141 206.25 202.141 207.562C202.141 208.844 204.016 209.469 207.828 209.469C211.578 209.469 213.484 208.844 213.484 207.562C213.484 206.25 211.578 205.656 207.828 205.625ZM227.078 197.969V204.375H230.953V197.969H234.641V217.125H223.328V197.969H227.078ZM227.078 213.938H230.953V207.5H227.078V213.938ZM247.172 195.438V223.875H243.359V209.531H240.797V222.562H237.016V195.844H240.797V206.281H243.359V195.438H247.172ZM272.734 195.438V203.406H276.578V206.688H272.734V215.812H268.703V195.438H272.734ZM264.984 197.562C264.984 205.25 260.172 210.625 251.641 213.031L249.984 209.875C256.344 208.094 259.953 204.797 260.609 200.812H251.234V197.562H264.984ZM273.703 220.188V223.375H254.234V213.719H258.266V220.188H273.703ZM287.047 197.344C291.547 197.312 294.922 200.25 294.922 204.312C294.922 208.406 291.547 211.312 287.047 211.312C282.547 211.312 279.141 208.406 279.141 204.312C279.141 200.25 282.547 197.312 287.047 197.344ZM287.047 200.781C284.797 200.781 283.078 202.094 283.109 204.312C283.078 206.562 284.797 207.844 287.047 207.844C289.297 207.844 291.016 206.562 291.047 204.312C291.016 202.094 289.328 200.781 287.047 200.781ZM301.734 195.438V223.938H297.766V195.438H301.734ZM277.953 214.875C283.016 214.906 290.047 214.812 296.141 213.969L296.453 216.844C290.141 218.062 283.391 218.125 278.422 218.125L277.953 214.875ZM146.359 243.188C146.328 247.531 148.641 252.531 153.328 254.688L151.109 257.812C147.938 256.359 145.672 253.453 144.422 250.031C143.141 253.797 140.812 256.984 137.516 258.531L135.203 255.375C139.953 253.156 142.328 247.875 142.359 243.188V241.438H136.328V238.188H152.078V241.438H146.359V243.188ZM158.297 235.438V246.281H162.484V249.625H158.297V263.875H154.297V235.438H158.297ZM189.516 251.25V254.469H183.422V263.875H179.359V254.469H173.547V263.875H169.453V254.469H163.484V251.25H189.516ZM176.422 236.375C182.516 236.375 186.797 238.906 186.797 242.812C186.797 246.656 182.516 249.062 176.422 249.062C170.328 249.062 166.078 246.656 166.109 242.812C166.078 238.906 170.328 236.375 176.422 236.375ZM176.422 239.562C172.609 239.562 170.172 240.719 170.203 242.812C170.172 244.812 172.609 245.938 176.422 245.938C180.266 245.938 182.672 244.812 182.672 242.812C182.672 240.719 180.266 239.562 176.422 239.562ZM217.203 257.438V260.719H191.172V257.438H202.141V253.156H194.172V243.594H210.266V240.469H194.141V237.281H214.203V246.719H198.172V249.906H214.859V253.156H206.109V257.438H217.203ZM244.828 249.281V252.469H234.047V257.406H230.016V252.469H218.797V249.281H244.828ZM241.953 260.156V263.375H221.891V254.875H225.922V260.156H241.953ZM231.797 235.969C237.953 236 242.047 238.281 242.078 241.875C242.047 245.5 237.953 247.75 231.797 247.75C225.609 247.75 221.484 245.5 221.484 241.875C221.484 238.281 225.609 236 231.797 235.969ZM231.797 239.125C228.109 239.125 225.766 240.062 225.797 241.875C225.766 243.625 228.109 244.562 231.797 244.562C235.453 244.562 237.797 243.625 237.797 241.875C237.797 240.062 235.453 239.125 231.797 239.125ZM279.859 250.031V253.156H269.141V257.75H265.203V253.156H253.828V250.031H279.859ZM276.984 260.188V263.375H256.891V255.5H260.828V260.188H276.984ZM261.109 236.344V239.312H272.516V236.344H276.484V248.031H257.172V236.344H261.109ZM261.109 244.875H272.516V242.281H261.109V244.875ZM290.797 236.625C295.141 236.594 298.297 239.062 298.297 242.656C298.297 246.219 295.141 248.719 290.797 248.688C286.453 248.719 283.297 246.219 283.328 242.656C283.297 239.062 286.453 236.594 290.797 236.625ZM290.797 239.812C288.672 239.812 287.172 240.844 287.172 242.656C287.172 244.438 288.672 245.469 290.797 245.438C292.984 245.469 294.516 244.438 294.516 242.656C294.516 240.844 292.984 239.812 290.797 239.812ZM305.484 235.469V263.875H301.547V235.469H305.484ZM281.578 250.438C286.609 250.438 293.766 250.312 299.828 249.406L300.078 252.344C297.734 252.812 295.328 253.109 292.953 253.281V263.031H288.984V253.531C286.484 253.641 284.125 253.656 282.078 253.688L281.578 250.438ZM333.078 235.438V263.875H329.047V235.438H333.078ZM324.547 238.406C324.547 247.031 321.516 254.188 311.359 259L309.266 255.812C316.609 252.344 319.844 247.844 320.484 241.531H310.797V238.406H324.547Z" fill="white"/>
<path d="M275.763 65.5556H176.61C174.857 65.5556 173.176 66.2579 171.936 67.5082C170.696 68.7584 170 70.4541 170 72.2222V98.8889C170.021 112.901 175.278 126.391 184.724 136.667H176.61C174.857 136.667 173.176 137.369 171.936 138.619C170.696 139.87 170 141.565 170 143.333C170 145.101 170.696 146.797 171.936 148.047C173.176 149.298 174.857 150 176.61 150H273.559C275.312 150 276.994 149.298 278.233 148.047C279.473 146.797 280.169 145.101 280.169 143.333C280.169 141.565 279.473 139.87 278.233 138.619C276.994 137.369 275.312 136.667 273.559 136.667H265.445C270.195 131.493 273.932 125.461 276.462 118.889C282.768 118.705 288.755 116.049 293.15 111.485C297.545 106.92 300.003 100.807 300 94.4445V90C299.993 83.5192 297.437 77.3059 292.893 72.7233C288.349 68.1407 282.189 65.5629 275.763 65.5556ZM266.949 98.8889C266.935 106.728 264.765 114.409 260.681 121.079C256.596 127.748 250.757 133.144 243.814 136.667H206.356C199.412 133.144 193.573 127.748 189.489 121.079C185.404 114.409 183.234 106.728 183.22 98.8889V78.8889H266.949V98.8889ZM286.78 94.4445C286.778 96.6631 286.117 98.8303 284.883 100.667C283.649 102.504 281.898 103.926 279.856 104.75C280.066 102.804 280.17 100.847 280.169 98.8889V79.8222C282.133 80.6866 283.805 82.1098 284.979 83.9175C286.153 85.7252 286.779 87.839 286.78 90V94.4445ZM196.441 50V36.6667C196.441 34.8986 197.137 33.2029 198.377 31.9526C199.616 30.7024 201.298 30 203.051 30C204.804 30 206.485 30.7024 207.725 31.9526C208.965 33.2029 209.661 34.8986 209.661 36.6667V50C209.661 51.7681 208.965 53.4638 207.725 54.714C206.485 55.9643 204.804 56.6667 203.051 56.6667C201.298 56.6667 199.616 55.9643 198.377 54.714C197.137 53.4638 196.441 51.7681 196.441 50ZM218.475 50V36.6667C218.475 34.8986 219.171 33.2029 220.411 31.9526C221.65 30.7024 223.332 30 225.085 30C226.838 30 228.519 30.7024 229.759 31.9526C230.998 33.2029 231.695 34.8986 231.695 36.6667V50C231.695 51.7681 230.998 53.4638 229.759 54.714C228.519 55.9643 226.838 56.6667 225.085 56.6667C223.332 56.6667 221.65 55.9643 220.411 54.714C219.171 53.4638 218.475 51.7681 218.475 50ZM240.508 50V36.6667C240.508 34.8986 241.205 33.2029 242.445 31.9526C243.684 30.7024 245.366 30 247.119 30C248.872 30 250.553 30.7024 251.793 31.9526C253.032 33.2029 253.729 34.8986 253.729 36.6667V50C253.729 51.7681 253.032 53.4638 251.793 54.714C250.553 55.9643 248.872 56.6667 247.119 56.6667C245.366 56.6667 243.684 55.9643 242.445 54.714C241.205 53.4638 240.508 51.7681 240.508 50Z" fill="white"/>
</svg>
