<svg width="21" height="23" viewBox="0 0 21 23" fill="none" xmlns="http://www.w3.org/2000/svg">
<path d="M3.12891 22.3906C1.21484 22.3906 0.257812 21.7656 0.257812 20.5156C0.257812 19.75 0.492188 18.9336 0.960938 18.0664C1.42969 17.1992 2.10547 16.3828 2.98828 15.6172C3.87891 14.8438 4.95312 14.2148 6.21094 13.7305C7.47656 13.2461 8.90625 13.0039 10.5 13.0039C12.0859 13.0039 13.5078 13.2461 14.7656 13.7305C16.0312 14.2148 17.1055 14.8438 17.9883 15.6172C18.8789 16.3828 19.5586 17.1992 20.0273 18.0664C20.4961 18.9336 20.7305 19.75 20.7305 20.5156C20.7305 21.7656 19.7734 22.3906 17.8594 22.3906H3.12891ZM2.57812 20.6211H18.4219C18.5703 20.6211 18.6758 20.5977 18.7383 20.5508C18.8086 20.5039 18.8438 20.418 18.8438 20.293C18.8438 19.8086 18.6602 19.2539 18.293 18.6289C17.9336 18.0039 17.3984 17.3984 16.6875 16.8125C15.9766 16.2266 15.1016 15.7422 14.0625 15.3594C13.0312 14.9688 11.8438 14.7734 10.5 14.7734C9.15625 14.7734 7.96484 14.9688 6.92578 15.3594C5.88672 15.7422 5.01172 16.2266 4.30078 16.8125C3.58984 17.3984 3.05078 18.0039 2.68359 18.6289C2.32422 19.2539 2.14453 19.8086 2.14453 20.293C2.14453 20.418 2.17578 20.5039 2.23828 20.5508C2.30859 20.5977 2.42188 20.6211 2.57812 20.6211ZM10.5 11.5391C9.57031 11.5391 8.72266 11.293 7.95703 10.8008C7.19141 10.3086 6.57812 9.64844 6.11719 8.82031C5.66406 7.98438 5.4375 7.06641 5.4375 6.06641C5.4375 5.07422 5.66406 4.17187 6.11719 3.35938C6.57812 2.54688 7.19141 1.89844 7.95703 1.41406C8.72266 0.929688 9.57031 0.6875 10.5 0.6875C11.4375 0.6875 12.2891 0.925781 13.0547 1.40234C13.8203 1.87891 14.4297 2.52344 14.8828 3.33594C15.3359 4.14063 15.5625 5.04297 15.5625 6.04297C15.5625 7.05078 15.332 7.97266 14.8711 8.80859C14.418 9.63672 13.8086 10.3008 13.043 10.8008C12.2773 11.293 11.4297 11.5391 10.5 11.5391ZM10.5 9.76953C11.0781 9.76953 11.6055 9.60547 12.082 9.27734C12.5664 8.94141 12.9531 8.49219 13.2422 7.92969C13.5312 7.35938 13.6758 6.73047 13.6758 6.04297C13.6758 5.36328 13.5312 4.75391 13.2422 4.21484C12.9609 3.66797 12.5781 3.23828 12.0938 2.92578C11.6172 2.61328 11.0859 2.45703 10.5 2.45703C9.92188 2.45703 9.39062 2.61719 8.90625 2.9375C8.42969 3.25 8.04688 3.67969 7.75781 4.22656C7.46875 4.77344 7.32422 5.38672 7.32422 6.06641C7.32422 6.75391 7.46875 7.37891 7.75781 7.94141C8.05469 8.50391 8.44141 8.94922 8.91797 9.27734C9.40234 9.60547 9.92969 9.76953 10.5 9.76953Z" fill="#B5B5B5"/>
</svg>
