<svg width="17" height="24" viewBox="0 0 17 24" fill="none" xmlns="http://www.w3.org/2000/svg">
<path d="M3.13281 23.7305C2.27344 23.7305 1.61719 23.4961 1.16406 23.0273C0.71875 22.5664 0.496094 21.8711 0.496094 20.9414V12.8672C0.496094 11.9453 0.71875 11.2539 1.16406 10.793C1.61719 10.3242 2.27344 10.0898 3.13281 10.0898H13.8555C14.7148 10.0898 15.3672 10.3242 15.8125 10.793C16.2656 11.2539 16.4922 11.9453 16.4922 12.8672V20.9414C16.4922 21.8711 16.2656 22.5664 15.8125 23.0273C15.3672 23.4961 14.7148 23.7305 13.8555 23.7305H3.13281ZM3.19141 21.9609H13.7969C14.0547 21.9609 14.25 21.8828 14.3828 21.7266C14.5234 21.5781 14.5938 21.3594 14.5938 21.0703V12.7383C14.5938 12.4492 14.5234 12.2305 14.3828 12.082C14.25 11.9336 14.0547 11.8594 13.7969 11.8594H3.19141C2.94141 11.8594 2.74609 11.9336 2.60547 12.082C2.46484 12.2305 2.39453 12.4492 2.39453 12.7383V21.0703C2.39453 21.3594 2.46484 21.5781 2.60547 21.7266C2.74609 21.8828 2.94141 21.9609 3.19141 21.9609ZM2.54688 10.9922V7.28906C2.54688 5.82031 2.82812 4.60156 3.39062 3.63281C3.96094 2.66406 4.69922 1.94141 5.60547 1.46484C6.51172 0.988281 7.47266 0.75 8.48828 0.75C9.51172 0.75 10.4766 0.988281 11.3828 1.46484C12.2891 1.94141 13.0234 2.66406 13.5859 3.63281C14.1562 4.60156 14.4414 5.82031 14.4414 7.28906V10.9922H12.5898V7.04297C12.5898 6.05859 12.3984 5.23047 12.0156 4.55859C11.6406 3.88672 11.1406 3.37891 10.5156 3.03516C9.89844 2.69141 9.22266 2.51953 8.48828 2.51953C7.76172 2.51953 7.08594 2.69141 6.46094 3.03516C5.84375 3.37891 5.34766 3.88672 4.97266 4.55859C4.59766 5.23047 4.41016 6.05859 4.41016 7.04297V10.9922H2.54688Z" fill="#B5B5B5"/>
</svg>
