<svg width="470" height="300" viewBox="0 0 470 300" fill="none" xmlns="http://www.w3.org/2000/svg">
<rect width="470" height="300" rx="45" fill="#1556F7"/>
<path d="M191.141 195.469V211.875H187.328V195.469H191.141ZM185.359 195.938V211.562H181.609V205.375H179.016V210.125H167.703V197.5H179.016V202.125H181.609V195.938H185.359ZM171.453 200.531V207.188H175.297V200.531H171.453ZM191.141 213V223.562H171.766V213H191.141ZM175.672 216.094V220.375H187.203V216.094H175.672ZM218.359 195.438V223.938H214.422V208.688H209.141V217.188H195.422V197.625H199.391V204.531H205.234V197.625H209.141V205.469H214.422V195.438H218.359ZM199.391 214H205.234V207.656H199.391V214ZM248.016 206.531V209.656H222.016V206.531H248.016ZM244.922 201.844V204.969H225.266V196H244.703V199.188H229.234V201.844H244.922ZM244.797 211.344V218.781H228.953V220.531H245.547V223.625H225.047V215.938H240.859V214.344H225.016V211.344H244.797ZM265.672 198.281V200.562C265.641 203.25 265.641 206.75 264.891 211.469L260.953 211.156C261.594 207.031 261.656 203.984 261.703 201.469H250.922V198.281H265.672ZM258.578 206.438V214.688C261.375 214.578 264.219 214.375 266.828 214.031L267.078 217C261.234 218 254.766 218.094 249.797 218.062L249.422 214.875C251.016 214.859 252.797 214.859 254.641 214.812V206.438H258.578ZM272.203 195.438V206.875H276.078V210.188H272.203V223.875H268.172V195.438H272.203ZM286.547 197.344C291.047 197.312 294.422 200.25 294.422 204.312C294.422 208.406 291.047 211.312 286.547 211.312C282.047 211.312 278.641 208.406 278.641 204.312C278.641 200.25 282.047 197.312 286.547 197.344ZM286.547 200.781C284.297 200.781 282.578 202.094 282.609 204.312C282.578 206.562 284.297 207.844 286.547 207.844C288.797 207.844 290.516 206.562 290.547 204.312C290.516 202.094 288.828 200.781 286.547 200.781ZM301.234 195.438V223.938H297.266V195.438H301.234ZM277.453 214.875C282.516 214.906 289.547 214.812 295.641 213.969L295.953 216.844C289.641 218.062 282.891 218.125 277.922 218.125L277.453 214.875ZM190.797 235.469V256.938H186.797V254.688H181.359V251.969H186.797V235.469H190.797ZM191.422 260.188V263.375H170.234V254.875H174.203V251.094C171.656 251.203 169.234 251.219 167.078 251.219L166.609 248.062C171.828 248.031 178.859 247.969 184.859 247.219L185.078 250.062C182.828 250.438 180.5 250.703 178.203 250.875V256.281H174.203V260.188H191.422ZM175.859 236.438C179.984 236.406 182.953 238.5 182.953 241.531C182.953 244.562 179.984 246.531 175.859 246.531C171.641 246.531 168.703 244.562 168.703 241.531C168.703 238.5 171.609 236.406 175.859 236.438ZM175.859 239.344C173.828 239.344 172.453 240.125 172.484 241.531C172.453 242.906 173.828 243.656 175.859 243.656C177.766 243.656 179.141 242.906 179.172 241.531C179.141 240.125 177.766 239.344 175.859 239.344ZM217.109 235.438V242.156H220.734V245.469H217.109V252.188H213.109V235.438H217.109ZM217.109 253.188V259.562H201.859V261.031H218.047V263.688H197.859V257.156H213.109V255.844H197.828V253.188H217.109ZM194.047 249.125C196.125 249.141 198.484 249.141 200.953 249.062V247.812C197.844 247.453 195.922 246.156 195.953 244.125C195.922 241.812 198.672 240.469 202.922 240.469C207.141 240.469 209.859 241.812 209.891 244.125C209.859 246.156 207.984 247.438 204.922 247.812V248.938C207.25 248.828 209.594 248.641 211.797 248.344L212.078 250.812C206.016 251.844 199.422 251.875 194.453 251.875L194.047 249.125ZM211.078 237.219V239.875H194.797V237.219H200.953V235.188H204.922V237.219H211.078ZM202.922 242.938C200.891 242.938 199.734 243.312 199.766 244.125C199.734 244.969 200.891 245.406 202.922 245.438C204.922 245.406 206.047 244.969 206.078 244.125C206.047 243.312 204.922 242.938 202.922 242.938ZM244.578 235.469V244.188H248.422V247.438H244.578V256.688H240.578V235.469H244.578ZM238.891 238.438V241.594H222.016V238.438H228.484V235.406H232.453V238.438H238.891ZM230.453 242.594C234.578 242.594 237.453 244.812 237.453 248.094C237.453 251.375 234.578 253.531 230.453 253.531C226.297 253.531 223.391 251.375 223.391 248.094C223.391 244.812 226.297 242.594 230.453 242.594ZM230.453 245.625C228.547 245.656 227.266 246.531 227.297 248.094C227.266 249.656 228.547 250.5 230.453 250.5C232.359 250.5 233.672 249.656 233.672 248.094C233.672 246.531 232.359 245.656 230.453 245.625ZM245.609 260.188V263.375H226.141V255.062H230.109V260.188H245.609ZM283.078 257.281V260.469H257.047V257.281H267.922V250.844H271.891V257.281H283.078ZM272.016 239.094C272.016 243.156 275.672 247.438 282.172 248.438L280.484 251.75C275.484 250.844 271.766 248.172 269.891 244.625C268.016 248.156 264.328 250.859 259.359 251.75L257.672 248.438C264.109 247.438 267.734 243.125 267.766 239.094V237.062H272.016V239.094ZM310.641 250.094V253.219H284.641V250.094H295.641V248.344H287.891V236.125H307.609V239.188H291.891V240.781H306.953V243.656H291.891V245.281H307.859V248.344H299.641V250.094H310.641ZM297.641 254.531C303.922 254.5 307.516 256.188 307.547 259.188C307.516 262.25 303.922 263.875 297.641 263.875C291.266 263.875 287.672 262.25 287.672 259.188C287.672 256.188 291.266 254.5 297.641 254.531ZM297.641 257.469C293.547 257.469 291.641 258 291.672 259.188C291.641 260.406 293.547 260.938 297.641 260.938C301.641 260.938 303.516 260.406 303.547 259.188C303.516 258 301.641 257.469 297.641 257.469Z" fill="white"/>
<path d="M217.273 86.5H213.773V90V100.775L202.165 87.6784L201.12 86.5H199.545H181.818C177.636 86.5 173.5 82.4758 173.5 76.6667V43.3333C173.5 37.5242 177.636 33.5 181.818 33.5H229.091C233.273 33.5 237.409 37.5242 237.409 43.3333V76.6667C237.409 82.4758 233.273 86.5 229.091 86.5H217.273ZM256.227 130V126.5H252.727H240.909C236.727 126.5 232.591 122.476 232.591 116.667V106.586C246.172 104.65 256.227 91.6007 256.227 76.6667V73.5H288.182C292.364 73.5 296.5 77.5242 296.5 83.3333V116.667C296.5 122.476 292.364 126.5 288.182 126.5H270.455H268.88L267.835 127.678L256.227 140.775V130Z" fill="#1556F7" stroke="white" stroke-width="7"/>
</svg>
