<svg width="608" height="248" viewBox="0 0 608 248" fill="none" xmlns="http://www.w3.org/2000/svg">
<g filter="url(#filter0_d_926_127)">
<rect x="5.75" y="1.75" width="596.5" height="236.5" rx="43.25" fill="#F8F8F8" stroke="#5C87F1" stroke-width="3.5"/>
<path d="M66.529 106.958H67.889V122.326H66.529V106.958ZM63.928 113.112H66.886V114.285H63.928V113.112ZM63.044 107.298H64.37V121.544H63.044V107.298ZM55.394 117.362H56.397C58.641 117.362 60.171 117.277 61.956 116.903L62.092 118.076C60.256 118.467 58.709 118.535 56.397 118.535H55.394V117.362ZM55.394 108.828H61.106V109.984H56.788V117.889H55.394V108.828ZM72.2227 107.961H81.8277V109.1H72.2227V107.961ZM70.4887 114.557H84.3777V115.713H70.4887V114.557ZM76.6937 115.322H78.1047V122.343H76.6937V115.322ZM81.1647 107.961H82.5417V109.287C82.5417 110.885 82.5417 112.687 81.9637 115.288L80.5697 115.101C81.1647 112.619 81.1647 110.834 81.1647 109.287V107.961ZM86.1273 119.164H100.05V120.337H86.1273V119.164ZM92.3153 115.441H93.7093V119.555H92.3153V115.441ZM92.2813 107.978H93.5053V109.168C93.5053 112.449 90.3603 114.982 87.2663 115.628L86.6713 114.455C89.3743 113.962 92.2813 111.701 92.2813 109.168V107.978ZM92.5363 107.978H93.7603V109.168C93.7603 111.718 96.6843 113.962 99.3873 114.455L98.7753 115.628C95.6813 114.982 92.5363 112.449 92.5363 109.168V107.978ZM101.766 119.181H115.689V120.354H101.766V119.181ZM102.973 108.488H114.38V109.644H102.973V108.488ZM103.007 114.982H114.363V116.138H103.007V114.982ZM105.37 109.559H106.781V115.101H105.37V109.559ZM110.606 109.559H112V115.101H110.606V109.559ZM119.19 115.237H129.747V116.376H119.19V115.237ZM117.405 119.181H131.328V120.354H117.405V119.181ZM119.19 108.267H129.577V109.423H120.618V115.594H119.19V108.267ZM120.159 111.701H129.254V112.823H120.159V111.701ZM136.902 107.944C138.84 107.944 140.251 109.083 140.251 110.766C140.251 112.449 138.84 113.605 136.902 113.605C134.964 113.605 133.57 112.449 133.57 110.766C133.57 109.083 134.964 107.944 136.902 107.944ZM136.902 109.015C135.695 109.015 134.828 109.729 134.828 110.766C134.828 111.803 135.695 112.534 136.902 112.534C138.109 112.534 138.976 111.803 138.976 110.766C138.976 109.729 138.109 109.015 136.902 109.015ZM144.688 106.958H146.048V122.326H144.688V106.958ZM141.798 107.298H143.124V121.527H141.798V107.298ZM138.925 117.039H142.274V118.144H138.925V117.039ZM136.154 115.407H137.514V121.085H136.154V115.407ZM133.009 115.968L132.822 114.795C134.93 114.795 138.33 114.761 140.812 114.387L140.931 115.424C138.33 115.934 135.083 115.968 133.009 115.968ZM152.779 108.131C155.006 108.131 156.604 110.222 156.604 113.486C156.604 116.767 155.006 118.858 152.779 118.858C150.535 118.858 148.954 116.767 148.954 113.486C148.954 110.222 150.535 108.131 152.779 108.131ZM152.779 109.406C151.3 109.406 150.297 111.004 150.297 113.486C150.297 115.985 151.3 117.617 152.779 117.617C154.258 117.617 155.261 115.985 155.261 113.486C155.261 111.004 154.258 109.406 152.779 109.406ZM159.936 106.941H161.33V122.343H159.936V106.941ZM156.145 112.806H160.548V113.962H156.145V112.806ZM164.916 108.488H171.971V118.433H164.916V108.488ZM170.594 109.627H166.293V117.294H170.594V109.627ZM174.708 106.958H176.136V122.326H174.708V106.958ZM175.796 113.095H178.652V114.285H175.796V113.095ZM191.111 106.941H192.522V122.343H191.111V106.941ZM184.413 108.131C186.691 108.131 188.323 110.222 188.323 113.486C188.323 116.767 186.691 118.858 184.413 118.858C182.152 118.858 180.52 116.767 180.52 113.486C180.52 110.222 182.152 108.131 184.413 108.131ZM184.413 109.406C182.917 109.406 181.863 111.004 181.863 113.486C181.863 115.985 182.917 117.617 184.413 117.617C185.926 117.617 186.963 115.985 186.963 113.486C186.963 111.004 185.926 109.406 184.413 109.406ZM201.752 108.012H202.976V109.185C202.976 112.534 199.865 115.135 196.788 115.832L196.159 114.659C198.862 114.149 201.752 111.803 201.752 109.185V108.012ZM202.007 108.012H203.231V109.185C203.231 111.82 206.138 114.149 208.824 114.659L208.195 115.832C205.135 115.135 202.007 112.551 202.007 109.185V108.012ZM195.598 119.096H209.521V120.252H195.598V119.096ZM222.491 106.941H223.885V122.343H222.491V106.941ZM219.295 112.738H222.695V113.911H219.295V112.738ZM211.934 117.481H213.107C215.997 117.481 217.816 117.43 219.975 117.022L220.111 118.178C217.901 118.569 216.031 118.654 213.107 118.654H211.934V117.481ZM211.934 108.352H219.04V109.525H213.328V117.889H211.934V108.352ZM212.971 112.67H218.377V113.809H212.971V112.67ZM228.337 108.488H238.231V109.661H228.337V108.488ZM226.875 119.011H240.764V120.184H226.875V119.011ZM232.264 113.52H233.675V119.589H232.264V113.52ZM237.704 108.488H239.098V110.018C239.098 111.922 239.098 114.03 238.537 117.141L237.126 116.954C237.704 114.013 237.704 111.854 237.704 110.018V108.488ZM247.495 108.063C249.892 108.063 251.609 109.542 251.609 111.684C251.609 113.843 249.892 115.322 247.495 115.322C245.098 115.322 243.364 113.843 243.364 111.684C243.364 109.542 245.098 108.063 247.495 108.063ZM247.495 109.287C245.897 109.287 244.741 110.256 244.741 111.684C244.741 113.112 245.897 114.098 247.495 114.098C249.076 114.098 250.232 113.112 250.232 111.684C250.232 110.256 249.076 109.287 247.495 109.287ZM253.615 106.941H255.026V122.343H253.615V106.941ZM242.786 118.977L242.582 117.804C245.387 117.804 249.263 117.787 252.612 117.26L252.731 118.297C249.28 118.96 245.523 118.977 242.786 118.977ZM266.749 108.131C268.976 108.131 270.574 110.222 270.574 113.486C270.574 116.767 268.976 118.858 266.749 118.858C264.505 118.858 262.924 116.767 262.924 113.486C262.924 110.222 264.505 108.131 266.749 108.131ZM266.749 109.406C265.27 109.406 264.267 111.004 264.267 113.486C264.267 115.985 265.27 117.617 266.749 117.617C268.228 117.617 269.231 115.985 269.231 113.486C269.231 111.004 268.228 109.406 266.749 109.406ZM273.906 106.941H275.3V122.343H273.906V106.941ZM270.115 112.806H274.518V113.962H270.115V112.806ZM289.748 106.958H291.159V122.326H289.748V106.958ZM278.647 108.437H283.05V109.593H278.647V108.437ZM283.628 108.437H287.912V109.593H283.628V108.437ZM287.266 112.483H290.564V113.656H287.266V112.483ZM280.534 109.287H281.588V111.582C281.588 114.251 281.027 117.6 279.055 119.164L278.154 118.144C280.024 116.716 280.534 113.775 280.534 111.582V109.287ZM280.84 109.287H281.877V111.582C281.877 113.571 282.2 116.682 284.138 118.246L283.339 119.317C281.248 117.651 280.84 114.013 280.84 111.582V109.287ZM284.801 109.287H285.838V111.582C285.838 114.149 285.43 117.685 283.339 119.317L282.54 118.246C284.461 116.733 284.801 113.69 284.801 111.582V109.287ZM285.107 109.287H286.161V111.582C286.161 113.877 286.671 116.75 288.541 118.144L287.64 119.164C285.651 117.617 285.107 114.353 285.107 111.582V109.287ZM301.29 109.661H305.591V110.817H301.29V109.661ZM301.29 112.942H305.625V114.115H301.29V112.942ZM294.626 108.284H301.647V115.492H294.626V108.284ZM300.253 109.423H296.003V114.353H300.253V109.423ZM305.149 106.975H306.56V118.195H305.149V106.975ZM296.683 120.83H306.934V121.986H296.683V120.83ZM296.683 117.175H298.094V121.357H296.683V117.175ZM324.454 106.941H325.882V122.326H324.454V106.941ZM325.491 113.18H328.33V114.353H325.491V113.18ZM320.527 108.607H321.904C321.904 112.976 319.898 116.92 314.934 119.419L314.152 118.331C318.402 116.172 320.527 112.891 320.527 108.828V108.607ZM314.866 108.607H321.258V109.763H314.866V108.607ZM333.479 108.607H334.635V109.848C334.635 112.67 332.935 115.033 330.351 115.968L329.637 114.846C331.949 114.03 333.479 112.041 333.479 109.848V108.607ZM333.734 108.607H334.89V109.831C334.89 111.837 336.352 113.639 338.613 114.387L337.933 115.492C335.366 114.642 333.734 112.449 333.734 109.831V108.607ZM330.062 108.097H338.273V109.253H330.062V108.097ZM340.211 106.958H341.622V116.223H340.211V106.958ZM341.231 110.851H343.9V112.041H341.231V110.851ZM336.726 116.631C339.854 116.631 341.775 117.668 341.775 119.453C341.775 121.255 339.854 122.292 336.726 122.292C333.598 122.292 331.677 121.255 331.677 119.453C331.677 117.668 333.598 116.631 336.726 116.631ZM336.726 117.77C334.448 117.77 333.054 118.382 333.054 119.453C333.054 120.541 334.448 121.187 336.726 121.187C339.004 121.187 340.398 120.541 340.398 119.453C340.398 118.382 339.004 117.77 336.726 117.77ZM351.611 107.757H361.505V108.913H351.611V107.757ZM349.826 114.523H363.766V115.679H349.826V114.523ZM360.587 107.757H361.964V109.083C361.964 110.63 361.964 112.398 361.454 114.897L360.077 114.744C360.587 112.33 360.587 110.596 360.587 109.083V107.757ZM360.978 110.834V111.871L351.424 112.313L351.22 111.14L360.978 110.834ZM351.594 120.83H362.27V121.986H351.594V120.83ZM351.594 117.192H353.005V121.102H351.594V117.192ZM369.964 116.053H383.904V117.209H369.964V116.053ZM376.186 116.597H377.58V122.326H376.186V116.597ZM371.715 107.57H373.126V109.678H380.725V107.57H382.119V114.217H371.715V107.57ZM373.126 110.817V113.078H380.725V110.817H373.126ZM385.603 115.067H399.526V116.223H385.603V115.067ZM391.961 115.645H393.372V119.181H391.961V115.645ZM387.371 120.83H397.979V121.986H387.371V120.83ZM387.371 117.821H388.765V121.272H387.371V117.821ZM387.456 107.434H388.85V109.389H396.279V107.434H397.69V113.588H387.456V107.434ZM388.85 110.494V112.449H396.279V110.494H388.85ZM412.41 106.941H413.821V122.343H412.41V106.941ZM405.712 108.131C407.99 108.131 409.622 110.222 409.622 113.486C409.622 116.767 407.99 118.858 405.712 118.858C403.451 118.858 401.819 116.767 401.819 113.486C401.819 110.222 403.451 108.131 405.712 108.131ZM405.712 109.406C404.216 109.406 403.162 111.004 403.162 113.486C403.162 115.985 404.216 117.617 405.712 117.617C407.225 117.617 408.262 115.985 408.262 113.486C408.262 111.004 407.225 109.406 405.712 109.406ZM427.301 106.941H428.712V122.343H427.301V106.941ZM428.372 113.061H431.228V114.251H428.372V113.061ZM417.509 117.464H418.733C421.623 117.464 423.629 117.362 425.958 116.92L426.111 118.093C423.714 118.518 421.674 118.637 418.733 118.637H417.509V117.464ZM417.475 108.386H424.428V113.894H418.903V117.94H417.509V112.738H423.034V109.542H417.475V108.386ZM447.541 106.907H448.952V115.39H447.541V106.907ZM448.357 110.596H451.23V111.786H448.357V110.596ZM439.194 116.172H448.952V119.606H440.622V121.476H439.228V118.586H447.575V117.243H439.194V116.172ZM439.228 121.068H449.513V122.156H439.228V121.068ZM437.069 108.335H446.147V109.44H437.069V108.335ZM441.608 110.12C443.818 110.12 445.28 111.089 445.28 112.653C445.28 114.2 443.818 115.152 441.608 115.152C439.364 115.152 437.919 114.2 437.919 112.653C437.919 111.089 439.364 110.12 441.608 110.12ZM441.608 111.157C440.18 111.157 439.262 111.735 439.262 112.653C439.262 113.554 440.18 114.132 441.608 114.132C443.019 114.132 443.937 113.554 443.937 112.653C443.937 111.735 443.019 111.157 441.608 111.157ZM440.894 106.788H442.305V109.1H440.894V106.788ZM463.377 107.502H464.618V108.352C464.618 111.293 461.626 113.401 458.43 113.945L457.869 112.806C460.674 112.381 463.377 110.545 463.377 108.352V107.502ZM463.632 107.502H464.856V108.352C464.856 110.494 467.593 112.381 470.364 112.806L469.803 113.945C466.641 113.401 463.632 111.259 463.632 108.352V107.502ZM463.377 116.478H464.771V122.326H463.377V116.478ZM457.172 115.611H471.061V116.784H457.172V115.611ZM481.135 116.41H482.223V117.243C482.223 119.249 480.965 121.272 478.755 122.122L478.041 121.068C479.979 120.371 481.135 118.722 481.135 117.243V116.41ZM481.441 116.41H482.495V117.243C482.495 118.79 483.413 120.439 485.249 121.187L484.654 122.258C482.444 121.391 481.441 119.283 481.441 117.243V116.41ZM486.813 116.41H487.867V117.243C487.867 119.045 486.847 121.323 484.654 122.258L484.059 121.187C485.878 120.354 486.813 118.569 486.813 117.243V116.41ZM487.102 116.41H488.19V117.243C488.19 118.824 489.329 120.405 491.284 121.068L490.57 122.122C488.326 121.306 487.102 119.368 487.102 117.243V116.41ZM488.479 106.975H489.907V115.747H488.479V106.975ZM481.662 107.859C483.991 107.859 485.657 109.321 485.657 111.446C485.657 113.571 483.991 115.016 481.662 115.016C479.333 115.016 477.65 113.571 477.65 111.446C477.65 109.321 479.333 107.859 481.662 107.859ZM481.662 109.032C480.132 109.032 479.027 110.018 479.027 111.446C479.027 112.874 480.132 113.843 481.662 113.843C483.192 113.843 484.297 112.874 484.297 111.446C484.297 110.018 483.192 109.032 481.662 109.032ZM494.819 111.565H505.257V112.721H494.819V111.565ZM492.932 114.778H506.872V115.934H492.932V114.778ZM494.819 107.519H496.213V112.143H494.819V107.519ZM494.717 120.796H505.342V121.952H494.717V120.796ZM494.717 117.464H496.111V121.102H494.717V117.464ZM524.255 106.958H525.683V115.203H524.255V106.958ZM515.772 115.968H517.166V117.838H524.289V115.968H525.683V122.122H515.772V115.968ZM517.166 118.96V120.983H524.289V118.96H517.166ZM517.438 107.689C519.767 107.689 521.433 109.134 521.433 111.225C521.433 113.333 519.767 114.778 517.438 114.778C515.109 114.778 513.426 113.333 513.426 111.225C513.426 109.134 515.109 107.689 517.438 107.689ZM517.438 108.862C515.908 108.862 514.803 109.831 514.803 111.225C514.803 112.619 515.908 113.588 517.438 113.588C518.968 113.588 520.073 112.619 520.073 111.225C520.073 109.831 518.968 108.862 517.438 108.862ZM528.759 108.573H537.837V109.729H528.759V108.573ZM533.298 110.511C535.474 110.511 536.97 111.599 536.97 113.299C536.97 114.982 535.474 116.053 533.298 116.053C531.088 116.053 529.609 114.982 529.609 113.299C529.609 111.599 531.088 110.511 533.298 110.511ZM533.298 111.616C531.887 111.616 530.952 112.262 530.952 113.299C530.952 114.302 531.887 114.965 533.298 114.965C534.675 114.965 535.627 114.302 535.627 113.299C535.627 112.262 534.675 111.616 533.298 111.616ZM539.231 106.958H540.642V116.563H539.231V106.958ZM540.251 111.191H542.92V112.364H540.251V111.191ZM530.663 117.396H540.642V122.326H539.231V118.552H530.663V117.396ZM532.584 106.873H533.995V109.219H532.584V106.873ZM54.833 146.053H68.773V147.209H54.833V146.053ZM61.055 146.597H62.449V152.326H61.055V146.597ZM56.584 137.57H57.995V139.678H65.594V137.57H66.988V144.217H56.584V137.57ZM57.995 140.817V143.078H65.594V140.817H57.995ZM70.4717 145.067H84.3947V146.223H70.4717V145.067ZM76.8297 145.645H78.2407V149.181H76.8297V145.645ZM72.2397 150.83H82.8477V151.986H72.2397V150.83ZM72.2397 147.821H73.6337V151.272H72.2397V147.821ZM72.3247 137.434H73.7187V139.389H81.1477V137.434H82.5587V143.588H72.3247V137.434ZM73.7187 140.494V142.449H81.1477V140.494H73.7187ZM93.0633 137.213C96.4463 137.213 98.4693 138.165 98.4693 139.882C98.4693 141.599 96.4463 142.551 93.0633 142.551C89.6633 142.551 87.6573 141.599 87.6573 139.882C87.6573 138.165 89.6633 137.213 93.0633 137.213ZM93.0633 138.284C90.5473 138.284 89.1023 138.862 89.1023 139.882C89.1023 140.902 90.5473 141.48 93.0633 141.48C95.5623 141.48 97.0073 140.902 97.0073 139.882C97.0073 138.862 95.5623 138.284 93.0633 138.284ZM86.1103 143.571H99.9993V144.71H86.1103V143.571ZM87.7933 146.019H98.2313V149.487H89.2213V151.357H87.8273V148.467H96.8373V147.107H87.7933V146.019ZM87.8273 151.051H98.6903V152.156H87.8273V151.051ZM114.408 141.191H118.284V142.347H114.408V141.191ZM117.485 136.975H118.896V148.229H117.485V136.975ZM109.087 150.83H119.321V151.986H109.087V150.83ZM109.087 147.243H110.498V151.425H109.087V147.243ZM110.175 138.879H111.331V140.12C111.331 142.908 109.597 145.322 107.03 146.274L106.299 145.152C108.594 144.336 110.175 142.296 110.175 140.12V138.879ZM110.447 138.879H111.586V140.103C111.586 142.092 113.082 144.03 115.309 144.812L114.595 145.917C112.096 145.016 110.447 142.704 110.447 140.103V138.879ZM106.741 138.216H114.952V139.355H106.741V138.216ZM132.41 136.958H133.821V145.662H132.41V136.958ZM133.43 140.715H136.099V141.871H133.43V140.715ZM122.601 143.622H123.791C126.953 143.622 128.738 143.537 130.795 143.112L130.948 144.268C128.84 144.693 127.021 144.795 123.791 144.795H122.601V143.622ZM122.601 137.978H129.367V139.134H123.995V144.285H122.601V137.978ZM124.165 146.478H133.821V152.122H124.165V146.478ZM132.444 147.617H125.542V150.966H132.444V147.617ZM147.946 136.958H149.357V152.326H147.946V136.958ZM149.017 143.265H151.873V144.455H149.017V143.265ZM137.457 139.406H146.518V140.562H137.457V139.406ZM142.047 141.837C144.223 141.837 145.787 143.299 145.787 145.373C145.787 147.447 144.223 148.909 142.047 148.909C139.888 148.909 138.307 147.447 138.307 145.373C138.307 143.299 139.888 141.837 142.047 141.837ZM142.047 143.01C140.653 143.01 139.65 143.979 139.65 145.373C139.65 146.75 140.653 147.736 142.047 147.736C143.441 147.736 144.444 146.75 144.444 145.373C144.444 143.979 143.441 143.01 142.047 143.01ZM141.316 137.145H142.727V139.933H141.316V137.145ZM155.051 141.565H165.489V142.721H155.051V141.565ZM153.164 144.778H167.104V145.934H153.164V144.778ZM155.051 137.519H156.445V142.143H155.051V137.519ZM154.949 150.796H165.574V151.952H154.949V150.796ZM154.949 147.464H156.343V151.102H154.949V147.464ZM173.319 144.523H187.208V145.679H173.319V144.523ZM179.558 142.058H180.952V144.999H179.558V142.058ZM175.07 141.616H185.593V142.772H175.07V141.616ZM175.07 137.655H185.474V138.794H176.464V142.296H175.07V137.655ZM180.238 146.784C183.519 146.784 185.508 147.787 185.508 149.538C185.508 151.323 183.519 152.309 180.238 152.309C176.957 152.309 174.968 151.323 174.968 149.538C174.968 147.787 176.957 146.784 180.238 146.784ZM180.238 147.872C177.841 147.872 176.396 148.484 176.396 149.538C176.396 150.609 177.841 151.204 180.238 151.204C182.652 151.204 184.08 150.609 184.08 149.538C184.08 148.484 182.652 147.872 180.238 147.872ZM193.037 138.131C195.298 138.131 196.896 140.222 196.896 143.486C196.896 146.767 195.298 148.858 193.037 148.858C190.776 148.858 189.178 146.767 189.178 143.486C189.178 140.222 190.776 138.131 193.037 138.131ZM193.037 139.406C191.541 139.406 190.521 141.004 190.521 143.486C190.521 145.985 191.541 147.617 193.037 147.617C194.516 147.617 195.553 145.985 195.553 143.486C195.553 141.004 194.516 139.406 193.037 139.406ZM199.344 136.958H200.772V152.326H199.344V136.958ZM200.432 143.095H203.288V144.285H200.432V143.095ZM215.782 136.941H217.193V152.343H215.782V136.941ZM205.48 147.464H206.755C209.322 147.464 211.617 147.362 214.337 146.92L214.49 148.076C211.702 148.535 209.39 148.637 206.755 148.637H205.48V147.464ZM205.446 138.386H212.552V143.877H206.891V147.906H205.48V142.721H211.124V139.542H205.446V138.386ZM226.457 142.925H229.364V144.098H226.457V142.925ZM231.931 136.958H233.291V152.326H231.931V136.958ZM228.888 137.281H230.231V151.561H228.888V137.281ZM223.686 138.233C225.675 138.233 226.967 140.29 226.967 143.588C226.967 146.886 225.675 148.943 223.686 148.943C221.697 148.943 220.422 146.886 220.422 143.588C220.422 140.29 221.697 138.233 223.686 138.233ZM223.686 139.542C222.479 139.542 221.714 141.106 221.714 143.588C221.714 146.07 222.479 147.634 223.686 147.634C224.91 147.634 225.675 146.07 225.675 143.588C225.675 141.106 224.91 139.542 223.686 139.542ZM243.54 142.16H247.824V143.316H243.54V142.16ZM239.834 138.284H240.99V141.021C240.99 144.472 239.171 147.77 236.74 149.079L235.839 147.957C238.1 146.835 239.834 143.877 239.834 141.021V138.284ZM240.106 138.284H241.245V141.021C241.245 143.826 242.979 146.614 245.206 147.668L244.373 148.807C241.891 147.549 240.106 144.387 240.106 141.021V138.284ZM247.127 136.941H248.521V152.343H247.127V136.941ZM266.517 136.958H267.928V144.795H266.517V136.958ZM267.316 140.409H270.206V141.582H267.316V140.409ZM256.64 137.961H263.695V144.234H256.64V137.961ZM262.318 139.1H258.017V143.112H262.318V139.1ZM257.609 150.762H258.34C259.258 150.762 260.737 150.677 262.046 150.235L262.284 151.374C260.805 151.85 259.394 151.918 258.34 151.918H257.609V150.762ZM257.609 146.206H258.986V151.068H257.609V146.206ZM261.723 146.359H269.441V147.413H261.723V146.359ZM265.599 147.974C267.265 147.974 268.438 148.824 268.438 150.133C268.438 151.476 267.265 152.309 265.599 152.309C263.916 152.309 262.743 151.476 262.743 150.133C262.743 148.824 263.916 147.974 265.599 147.974ZM265.599 148.977C264.647 148.977 264.001 149.436 264.001 150.133C264.001 150.847 264.647 151.306 265.599 151.306C266.517 151.306 267.18 150.847 267.18 150.133C267.18 149.436 266.517 148.977 265.599 148.977ZM264.902 145.016H266.279V147.107H264.902V145.016ZM271.633 145.033H285.522V146.189H271.633V145.033ZM273.435 150.83H283.992V151.986H273.435V150.83ZM273.435 147.532H274.846V151.187H273.435V147.532ZM278.586 137.468C281.867 137.468 283.992 138.624 283.992 140.545C283.992 142.449 281.867 143.605 278.586 143.605C275.288 143.605 273.18 142.449 273.18 140.545C273.18 138.624 275.288 137.468 278.586 137.468ZM278.586 138.624C276.172 138.624 274.625 139.338 274.625 140.545C274.625 141.752 276.172 142.466 278.586 142.466C281 142.466 282.547 141.752 282.547 140.545C282.547 139.338 281 138.624 278.586 138.624ZM303.008 136.958H304.419V147.362H303.008V136.958ZM299.71 141.293H303.297V142.449H299.71V141.293ZM298.18 138.165H299.659C299.659 142.143 297.041 144.965 292.638 146.393L292.043 145.271C295.935 144.047 298.18 141.735 298.18 138.726V138.165ZM292.774 138.165H299.183V139.321H292.774V138.165ZM298.758 146.036H299.965V146.733C299.965 149.674 297.279 151.663 294.202 152.292L293.641 151.17C296.361 150.677 298.758 148.977 298.758 146.733V146.036ZM298.962 146.036H300.169V146.733C300.169 148.943 302.532 150.643 305.269 151.136L304.674 152.258C301.614 151.646 298.962 149.657 298.962 146.733V146.036ZM314.362 137.213C317.745 137.213 319.768 138.165 319.768 139.882C319.768 141.599 317.745 142.551 314.362 142.551C310.962 142.551 308.956 141.599 308.956 139.882C308.956 138.165 310.962 137.213 314.362 137.213ZM314.362 138.284C311.846 138.284 310.401 138.862 310.401 139.882C310.401 140.902 311.846 141.48 314.362 141.48C316.861 141.48 318.306 140.902 318.306 139.882C318.306 138.862 316.861 138.284 314.362 138.284ZM307.409 143.571H321.298V144.71H307.409V143.571ZM309.092 146.019H319.53V149.487H310.52V151.357H309.126V148.467H318.136V147.107H309.092V146.019ZM309.126 151.051H319.989V152.156H309.126V151.051ZM328.108 138.403H329.451V142.16H332.664V138.403H333.973V148.484H328.108V138.403ZM329.451 143.299V147.328H332.664V143.299H329.451ZM339.26 136.958H340.62V152.326H339.26V136.958ZM336.795 143.044H339.753V144.2H336.795V143.044ZM335.86 137.281H337.203V151.561H335.86V137.281ZM343.186 145.764H357.126V146.92H343.186V145.764ZM349.408 146.478H350.802V152.326H349.408V146.478ZM350.122 137.57C353.335 137.57 355.494 138.879 355.494 140.936C355.494 142.993 353.335 144.302 350.122 144.302C346.926 144.302 344.75 142.993 344.75 140.936C344.75 138.879 346.926 137.57 350.122 137.57ZM350.122 138.709C347.776 138.709 346.178 139.576 346.178 140.936C346.178 142.296 347.776 143.163 350.122 143.163C352.468 143.163 354.049 142.296 354.049 140.936C354.049 139.576 352.468 138.709 350.122 138.709ZM360.303 138.488H370.197V139.661H360.303V138.488ZM358.841 149.011H372.73V150.184H358.841V149.011ZM364.23 143.52H365.641V149.589H364.23V143.52ZM369.67 138.488H371.064V140.018C371.064 141.922 371.064 144.03 370.503 147.141L369.092 146.954C369.67 144.013 369.67 141.854 369.67 140.018V138.488ZM379.523 138.403H380.866V142.16H384.079V138.403H385.388V148.484H379.523V138.403ZM380.866 143.299V147.328H384.079V143.299H380.866ZM390.675 136.958H392.035V152.326H390.675V136.958ZM388.21 143.044H391.168V144.2H388.21V143.044ZM387.275 137.281H388.618V151.561H387.275V137.281ZM394.601 144.744H408.541V145.9H394.601V144.744ZM400.959 145.475H402.387V149.011H400.959V145.475ZM396.369 150.813H406.994V151.986H396.369V150.813ZM396.369 147.498H397.78V151.136H396.369V147.498ZM401.554 137.332C404.801 137.332 406.943 138.522 406.943 140.426C406.943 142.33 404.801 143.52 401.554 143.52C398.29 143.52 396.165 142.33 396.165 140.426C396.165 138.522 398.29 137.332 401.554 137.332ZM401.554 138.488C399.208 138.488 397.661 139.236 397.661 140.426C397.661 141.633 399.208 142.364 401.554 142.364C403.9 142.364 405.447 141.633 405.447 140.426C405.447 139.236 403.9 138.488 401.554 138.488ZM410.885 138.335H417.94V145.458H410.885V138.335ZM416.563 139.474H412.262V144.319H416.563V139.474ZM420.762 136.941H422.173V148.212H420.762V136.941ZM421.731 141.633H424.451V142.806H421.731V141.633ZM412.602 150.83H422.87V151.986H412.602V150.83ZM412.602 147.141H414.013V151.323H412.602V147.141ZM427.663 137.604H437.557V138.76H427.663V137.604ZM425.878 143.979H439.818V145.135H425.878V143.979ZM436.639 137.604H438.016V138.862C438.016 140.307 438.016 142.024 437.506 144.421L436.129 144.251C436.639 141.956 436.639 140.29 436.639 138.862V137.604ZM437.03 140.545V141.599L427.476 142.024L427.272 140.868L437.03 140.545ZM427.595 146.903H438.067V152.122H427.595V146.903ZM436.69 148.025H428.972V150.983H436.69V148.025ZM449.824 139.151H450.946V141.65C450.946 144.846 448.991 148.144 446.594 149.368L445.778 148.246C447.971 147.175 449.824 144.251 449.824 141.65V139.151ZM450.079 139.151H451.201V141.65C451.201 144.081 452.935 146.818 455.162 147.872L454.363 148.994C451.932 147.787 450.079 144.693 450.079 141.65V139.151ZM446.322 138.522H454.601V139.712H446.322V138.522ZM456.42 136.958H457.848V152.326H456.42V136.958ZM457.508 143.163H460.364V144.353H457.508V143.163ZM461.654 146.053H475.594V147.209H461.654V146.053ZM467.876 146.597H469.27V152.326H467.876V146.597ZM463.405 137.57H464.816V139.678H472.415V137.57H473.809V144.217H463.405V137.57ZM464.816 140.817V143.078H472.415V140.817H464.816ZM488.479 136.975H489.907V145.696H488.479V136.975ZM479.979 146.58H489.907V152.122H479.979V146.58ZM488.513 147.702H481.356V150.983H488.513V147.702ZM481.305 137.553H482.478V139.049C482.478 141.905 480.71 144.353 478.109 145.322L477.412 144.2C479.724 143.367 481.305 141.293 481.305 139.049V137.553ZM481.56 137.553H482.716V139.049C482.716 141.225 484.314 143.146 486.592 143.911L485.895 145.016C483.328 144.132 481.56 141.837 481.56 139.049V137.553ZM499.885 137.213C503.268 137.213 505.291 138.165 505.291 139.882C505.291 141.599 503.268 142.551 499.885 142.551C496.485 142.551 494.479 141.599 494.479 139.882C494.479 138.165 496.485 137.213 499.885 137.213ZM499.885 138.284C497.369 138.284 495.924 138.862 495.924 139.882C495.924 140.902 497.369 141.48 499.885 141.48C502.384 141.48 503.829 140.902 503.829 139.882C503.829 138.862 502.384 138.284 499.885 138.284ZM492.932 143.571H506.821V144.71H492.932V143.571ZM494.615 146.019H505.053V149.487H496.043V151.357H494.649V148.467H503.659V147.107H494.615V146.019ZM494.649 151.051H505.512V152.156H494.649V151.051ZM514.786 143.894H525.428V145.067H514.786V143.894ZM513.086 149.045H527.009V150.218H513.086V149.045ZM514.786 138.301H516.197V144.421H514.786V138.301ZM539.911 136.958H541.305V152.326H539.911V136.958ZM532.142 138.607H533.451C533.451 142.279 532.584 145.9 529.83 148.841L528.708 148.008C531.207 145.424 532.142 142.228 532.142 138.76V138.607ZM529.269 138.607H532.669V139.78H529.269V138.607ZM536.426 138.607H537.735C537.735 142.279 537.157 146.546 534.386 149.861L533.213 149.096C535.78 146.087 536.426 142.279 536.426 138.743V138.607ZM533.961 138.607H536.919V139.78H533.961V138.607ZM61.905 170.63H66.648V171.786H61.905V170.63ZM61.905 174.863H66.648V176.036H61.905V174.863ZM55.462 168.454H62.449V178.45H55.462V168.454ZM61.055 169.593H56.839V177.311H61.055V169.593ZM66.104 166.941H67.498V182.343H66.104V166.941ZM86.1397 166.941H87.5507V182.343H86.1397V166.941ZM79.4417 168.131C81.7197 168.131 83.3517 170.222 83.3517 173.486C83.3517 176.767 81.7197 178.858 79.4417 178.858C77.1807 178.858 75.5487 176.767 75.5487 173.486C75.5487 170.222 77.1807 168.131 79.4417 168.131ZM79.4417 169.406C77.9457 169.406 76.8917 171.004 76.8917 173.486C76.8917 175.985 77.9457 177.617 79.4417 177.617C80.9547 177.617 81.9917 175.985 81.9917 173.486C81.9917 171.004 80.9547 169.406 79.4417 169.406ZM101.013 166.958H102.441V182.326H101.013V166.958ZM102.101 172.993H104.957V174.2H102.101V172.993ZM91.2214 168.25H92.6154V172.313H97.0014V168.25H98.3954V178.637H91.2214V168.25ZM92.6154 173.435V177.481H97.0014V173.435H92.6154ZM110.328 169.151H111.467V171.65C111.467 174.897 109.512 178.161 107.064 179.368L106.248 178.246C108.475 177.192 110.328 174.302 110.328 171.65V169.151ZM110.6 169.151H111.739V171.65C111.739 174.251 113.592 176.903 115.853 177.872L115.054 178.994C112.572 177.838 110.6 174.846 110.6 171.65V169.151ZM106.758 168.522H115.343V169.712H106.758V168.522ZM117.417 166.958H118.828V182.326H117.417V166.958ZM132.41 166.907H133.821V175.39H132.41V166.907ZM133.226 170.596H136.099V171.786H133.226V170.596ZM124.063 176.172H133.821V179.606H125.491V181.476H124.097V178.586H132.444V177.243H124.063V176.172ZM124.097 181.068H134.382V182.156H124.097V181.068ZM121.938 168.335H131.016V169.44H121.938V168.335ZM126.477 170.12C128.687 170.12 130.149 171.089 130.149 172.653C130.149 174.2 128.687 175.152 126.477 175.152C124.233 175.152 122.788 174.2 122.788 172.653C122.788 171.089 124.233 170.12 126.477 170.12ZM126.477 171.157C125.049 171.157 124.131 171.735 124.131 172.653C124.131 173.554 125.049 174.132 126.477 174.132C127.888 174.132 128.806 173.554 128.806 172.653C128.806 171.735 127.888 171.157 126.477 171.157ZM125.763 166.788H127.174V169.1H125.763V166.788ZM148.246 167.502H149.487V168.352C149.487 171.293 146.495 173.401 143.299 173.945L142.738 172.806C145.543 172.381 148.246 170.545 148.246 168.352V167.502ZM148.501 167.502H149.725V168.352C149.725 170.494 152.462 172.381 155.233 172.806L154.672 173.945C151.51 173.401 148.501 171.259 148.501 168.352V167.502ZM148.246 176.478H149.64V182.326H148.246V176.478ZM142.041 175.611H155.93V176.784H142.041V175.611ZM166.004 176.41H167.092V177.243C167.092 179.249 165.834 181.272 163.624 182.122L162.91 181.068C164.848 180.371 166.004 178.722 166.004 177.243V176.41ZM166.31 176.41H167.364V177.243C167.364 178.79 168.282 180.439 170.118 181.187L169.523 182.258C167.313 181.391 166.31 179.283 166.31 177.243V176.41ZM171.682 176.41H172.736V177.243C172.736 179.045 171.716 181.323 169.523 182.258L168.928 181.187C170.747 180.354 171.682 178.569 171.682 177.243V176.41ZM171.971 176.41H173.059V177.243C173.059 178.824 174.198 180.405 176.153 181.068L175.439 182.122C173.195 181.306 171.971 179.368 171.971 177.243V176.41ZM173.348 166.975H174.776V175.747H173.348V166.975ZM166.531 167.859C168.86 167.859 170.526 169.321 170.526 171.446C170.526 173.571 168.86 175.016 166.531 175.016C164.202 175.016 162.519 173.571 162.519 171.446C162.519 169.321 164.202 167.859 166.531 167.859ZM166.531 169.032C165.001 169.032 163.896 170.018 163.896 171.446C163.896 172.874 165.001 173.843 166.531 173.843C168.061 173.843 169.166 172.874 169.166 171.446C169.166 170.018 168.061 169.032 166.531 169.032ZM181.915 168.131C184.142 168.131 185.74 170.222 185.74 173.486C185.74 176.767 184.142 178.858 181.915 178.858C179.671 178.858 178.09 176.767 178.09 173.486C178.09 170.222 179.671 168.131 181.915 168.131ZM181.915 169.406C180.436 169.406 179.433 171.004 179.433 173.486C179.433 175.985 180.436 177.617 181.915 177.617C183.394 177.617 184.397 175.985 184.397 173.486C184.397 171.004 183.394 169.406 181.915 169.406ZM189.072 166.941H190.466V182.343H189.072V166.941ZM185.281 172.806H189.684V173.962H185.281V172.806ZM204.177 171.514H205.571V173.86H204.177V171.514ZM203.973 167.893H205.214V168.369C205.214 170.681 202.358 172.16 199.128 172.466L198.669 171.395C201.44 171.174 203.973 169.984 203.973 168.369V167.893ZM204.585 167.893H205.809V168.369C205.809 169.967 208.342 171.174 211.113 171.395L210.654 172.466C207.441 172.16 204.585 170.681 204.585 168.369V167.893ZM199.213 167.434H210.586V168.539H199.213V167.434ZM199.23 176.495H210.552V177.617H199.23V176.495ZM197.938 173.333H211.878V174.472H197.938V173.333ZM204.891 178.365C207.849 178.365 209.498 179.062 209.498 180.388C209.498 181.731 207.849 182.411 204.891 182.411C201.933 182.411 200.267 181.731 200.267 180.388C200.267 179.062 201.933 178.365 204.891 178.365ZM204.891 179.334C202.851 179.334 201.712 179.691 201.712 180.388C201.712 181.085 202.851 181.442 204.891 181.442C206.914 181.442 208.07 181.085 208.07 180.388C208.07 179.691 206.914 179.334 204.891 179.334ZM204.194 175.084H205.588V177.209H204.194V175.084ZM217.878 167.859C220.19 167.859 221.89 169.338 221.89 171.48C221.89 173.622 220.19 175.101 217.878 175.101C215.566 175.101 213.866 173.622 213.866 171.48C213.866 169.338 215.566 167.859 217.878 167.859ZM217.878 169.049C216.348 169.049 215.243 170.035 215.243 171.48C215.243 172.925 216.348 173.911 217.878 173.911C219.408 173.911 220.513 172.925 220.513 171.48C220.513 170.035 219.408 169.049 217.878 169.049ZM224.1 166.958H225.511V175.713H224.1V166.958ZM225.12 170.63H227.789V171.803H225.12V170.63ZM217.266 176.393H218.354V177.226C218.354 179.249 217.113 181.289 214.903 182.139L214.189 181.085C216.127 180.371 217.266 178.705 217.266 177.226V176.393ZM217.572 176.393H218.626V177.226C218.626 178.79 219.527 180.456 221.397 181.204L220.785 182.275C218.558 181.408 217.572 179.283 217.572 177.226V176.393ZM222.944 176.393H223.998V177.226C223.998 179.045 222.995 181.34 220.785 182.275L220.173 181.204C222.026 180.371 222.944 178.569 222.944 177.226V176.393ZM223.216 176.393H224.321V177.226C224.321 178.824 225.443 180.422 227.381 181.085L226.684 182.139C224.44 181.323 223.216 179.368 223.216 177.226V176.393ZM230.984 176.172H232.378V177.957H239.892V176.172H241.303V182.122H230.984V176.172ZM232.378 179.045V180.983H239.892V179.045H232.378ZM229.216 173.962H243.105V175.101H229.216V173.962ZM235.455 167.128H236.662V167.808C236.662 170.477 233.687 172.398 230.525 172.874L230.015 171.769C232.786 171.395 235.455 169.746 235.455 167.808V167.128ZM235.676 167.128H236.883V167.808C236.883 169.712 239.586 171.395 242.323 171.769L241.796 172.874C238.668 172.398 235.676 170.443 235.676 167.808V167.128ZM256.04 166.958H257.451V182.326H256.04V166.958ZM245.84 168.454H247.234V177.974H245.84V168.454ZM245.84 177.141H247.098C249.427 177.141 251.858 176.971 254.459 176.427L254.629 177.634C251.96 178.178 249.529 178.365 247.098 178.365H245.84V177.141ZM270.897 166.941H272.325V182.343H270.897V166.941ZM271.985 173.01H274.841V174.2H271.985V173.01ZM261.156 177.328H262.363C265.202 177.328 267.191 177.226 269.486 176.801L269.639 177.991C267.276 178.433 265.253 178.518 262.363 178.518H261.156V177.328ZM261.156 168.437H268.296V169.593H262.55V177.855H261.156V168.437ZM277.702 181.115C277.372 181.115 277.088 180.998 276.85 180.765C276.613 180.527 276.494 180.241 276.494 179.907C276.494 179.577 276.613 179.296 276.85 179.062C277.088 178.825 277.372 178.706 277.702 178.706C278.032 178.706 278.315 178.825 278.553 179.062C278.79 179.296 278.909 179.577 278.909 179.907C278.909 180.129 278.853 180.332 278.74 180.517C278.631 180.698 278.486 180.843 278.305 180.952C278.124 181.06 277.923 181.115 277.702 181.115Z" fill="black"/>
<path d="M143.943 68.1477H142.17C142.102 67.7689 141.975 67.4356 141.79 67.1477C141.604 66.8598 141.377 66.6155 141.108 66.4148C140.839 66.214 140.538 66.0625 140.205 65.9602C139.875 65.858 139.525 65.8068 139.153 65.8068C138.483 65.8068 137.883 65.9754 137.352 66.3125C136.826 66.6496 136.409 67.1439 136.102 67.7955C135.799 68.447 135.648 69.2424 135.648 70.1818C135.648 71.1288 135.799 71.928 136.102 72.5795C136.409 73.2311 136.828 73.7235 137.358 74.0568C137.888 74.3902 138.485 74.5568 139.148 74.5568C139.515 74.5568 139.864 74.5076 140.193 74.4091C140.527 74.3068 140.828 74.1572 141.097 73.9602C141.366 73.7633 141.593 73.5227 141.778 73.2386C141.968 72.9508 142.098 72.6212 142.17 72.25L143.943 72.2557C143.848 72.8277 143.665 73.3542 143.392 73.8352C143.123 74.3125 142.777 74.7254 142.352 75.0739C141.932 75.4186 141.451 75.6856 140.909 75.875C140.367 76.0644 139.777 76.1591 139.136 76.1591C138.129 76.1591 137.231 75.9205 136.443 75.4432C135.655 74.9621 135.034 74.2746 134.58 73.3807C134.129 72.4867 133.903 71.4205 133.903 70.1818C133.903 68.9394 134.131 67.8731 134.585 66.983C135.04 66.089 135.661 65.4034 136.449 64.9261C137.237 64.4451 138.133 64.2045 139.136 64.2045C139.754 64.2045 140.33 64.2936 140.864 64.4716C141.402 64.6458 141.884 64.9034 142.312 65.2443C142.741 65.5814 143.095 65.9943 143.375 66.483C143.655 66.9678 143.845 67.5227 143.943 68.1477ZM155.436 64.3636V76H153.822L147.908 67.4659H147.8V76H146.044V64.3636H147.669L153.589 72.9091H153.697V64.3636H155.436ZM164.344 67.4205C164.283 66.8826 164.033 66.4659 163.594 66.1705C163.154 65.8712 162.601 65.7216 161.935 65.7216C161.457 65.7216 161.045 65.7973 160.696 65.9489C160.348 66.0966 160.077 66.3011 159.884 66.5625C159.694 66.8201 159.599 67.1136 159.599 67.4432C159.599 67.7197 159.664 67.9583 159.793 68.1591C159.925 68.3598 160.098 68.5284 160.31 68.6648C160.526 68.7973 160.757 68.9091 161.003 69C161.249 69.0871 161.486 69.1591 161.713 69.2159L162.849 69.5114C163.221 69.6023 163.601 69.7254 163.991 69.8807C164.382 70.036 164.743 70.2405 165.077 70.4943C165.41 70.7481 165.679 71.0625 165.884 71.4375C166.092 71.8125 166.196 72.2614 166.196 72.7841C166.196 73.4432 166.026 74.0284 165.685 74.5398C165.348 75.0511 164.857 75.4545 164.213 75.75C163.573 76.0455 162.798 76.1932 161.889 76.1932C161.018 76.1932 160.264 76.0549 159.628 75.7784C158.991 75.5019 158.493 75.1098 158.134 74.6023C157.774 74.0909 157.575 73.4848 157.537 72.7841H159.298C159.332 73.2045 159.469 73.5549 159.707 73.8352C159.95 74.1117 160.259 74.3182 160.634 74.4545C161.012 74.5871 161.427 74.6534 161.878 74.6534C162.374 74.6534 162.815 74.5758 163.202 74.4205C163.592 74.2614 163.899 74.0417 164.122 73.7614C164.346 73.4773 164.457 73.1458 164.457 72.767C164.457 72.4223 164.359 72.1402 164.162 71.9205C163.969 71.7008 163.705 71.5189 163.372 71.375C163.043 71.2311 162.67 71.1042 162.253 70.9943L160.878 70.6193C159.946 70.3655 159.207 69.9924 158.662 69.5C158.12 69.0076 157.849 68.3561 157.849 67.5455C157.849 66.875 158.031 66.2898 158.395 65.7898C158.759 65.2898 159.251 64.9015 159.872 64.625C160.493 64.3447 161.194 64.2045 161.974 64.2045C162.762 64.2045 163.457 64.3428 164.06 64.6193C164.666 64.8958 165.143 65.2765 165.491 65.7614C165.84 66.2424 166.022 66.7955 166.037 67.4205H164.344ZM176.21 76.1591C175.498 76.1591 174.858 76.0227 174.29 75.75C173.725 75.4735 173.275 75.0947 172.938 74.6136C172.6 74.1326 172.42 73.5833 172.398 72.9659H174.102C174.144 73.4659 174.366 73.8769 174.767 74.1989C175.169 74.5208 175.65 74.6818 176.21 74.6818C176.657 74.6818 177.053 74.5795 177.398 74.375C177.746 74.1667 178.019 73.8807 178.216 73.517C178.417 73.1534 178.517 72.7386 178.517 72.2727C178.517 71.7992 178.415 71.3769 178.21 71.0057C178.006 70.6345 177.723 70.3428 177.364 70.1307C177.008 69.9186 176.598 69.8106 176.136 69.8068C175.784 69.8068 175.43 69.8674 175.074 69.9886C174.718 70.1098 174.43 70.2689 174.21 70.4659L172.602 70.2273L173.256 64.3636H179.653V65.8693H174.716L174.347 69.125H174.415C174.642 68.9053 174.943 68.7216 175.318 68.5739C175.697 68.4261 176.102 68.3523 176.534 68.3523C177.242 68.3523 177.873 68.5208 178.426 68.858C178.983 69.1951 179.42 69.6553 179.739 70.2386C180.061 70.8182 180.22 71.4848 180.216 72.2386C180.22 72.9924 180.049 73.6648 179.705 74.2557C179.364 74.8466 178.89 75.3125 178.284 75.6534C177.682 75.9905 176.991 76.1591 176.21 76.1591ZM192.5 62.784H193.828V77.248H192.5V62.784ZM188.26 64.336H189.572C189.572 68.528 187.684 72.192 182.852 74.56L182.148 73.488C186.324 71.472 188.26 68.4 188.26 64.56V64.336ZM182.804 64.336H188.836V65.424H182.804V64.336Z" fill="black"/>
<path d="M70.875 53.05H74.225V76.275H70.875V53.05ZM61.75 54.675C65.25 54.675 67.825 57.875 67.825 62.925C67.825 68.025 65.25 71.225 61.75 71.225C58.25 71.225 55.675 68.025 55.675 62.925C55.675 57.875 58.25 54.675 61.75 54.675ZM61.75 57.7C60.025 57.7 58.85 59.525 58.85 62.925C58.85 66.375 60.025 68.225 61.75 68.225C63.475 68.225 64.625 66.375 64.625 62.925C64.625 59.525 63.475 57.7 61.75 57.7ZM88.473 53.5C93.448 53.5 96.798 55.375 96.798 58.3C96.798 61.225 93.448 63.075 88.473 63.075C83.473 63.075 80.148 61.225 80.148 58.3C80.148 55.375 83.473 53.5 88.473 53.5ZM88.473 56.125C85.548 56.125 83.723 56.875 83.723 58.3C83.723 59.7 85.548 60.45 88.473 60.45C91.398 60.45 93.223 59.7 93.223 58.3C93.223 56.875 91.398 56.125 88.473 56.125ZM78.023 64.275H98.973V66.925H78.023V64.275ZM80.373 73.175H96.923V75.825H80.373V73.175ZM80.373 69.025H83.698V74.7H80.373V69.025ZM85.173 65.2H88.498V71H85.173V65.2ZM90.773 65.225H94.098V71.025H90.773V65.225ZM112.821 58H118.196V60.675H112.821V58ZM106.296 54.5H108.971V57C108.971 61.725 106.996 65.75 102.621 67.35L100.871 64.75C104.696 63.475 106.296 60.275 106.296 57V54.5ZM107.021 54.5H109.671V57.025C109.671 60 111.196 62.975 114.846 64.225L113.071 66.775C108.921 65.275 107.021 61.4 107.021 57.025V54.5ZM117.046 53.1H120.371V70.175H117.046V53.1ZM105.046 73.175H120.871V75.825H105.046V73.175ZM105.046 68.45H108.396V74.65H105.046V68.45Z" fill="black"/>
</g>
<defs>
<filter id="filter0_d_926_127" x="0" y="0" width="608" height="248" filterUnits="userSpaceOnUse" color-interpolation-filters="sRGB">
<feFlood flood-opacity="0" result="BackgroundImageFix"/>
<feColorMatrix in="SourceAlpha" type="matrix" values="0 0 0 0 0 0 0 0 0 0 0 0 0 0 0 0 0 0 127 0" result="hardAlpha"/>
<feOffset dy="4"/>
<feGaussianBlur stdDeviation="2"/>
<feComposite in2="hardAlpha" operator="out"/>
<feColorMatrix type="matrix" values="0 0 0 0 0 0 0 0 0 0 0 0 0 0 0 0 0 0 0.25 0"/>
<feBlend mode="normal" in2="BackgroundImageFix" result="effect1_dropShadow_926_127"/>
<feBlend mode="normal" in="SourceGraphic" in2="effect1_dropShadow_926_127" result="shape"/>
</filter>
</defs>
</svg>
