<svg width="608" height="218" viewBox="0 0 608 218" fill="none" xmlns="http://www.w3.org/2000/svg">
<g filter="url(#filter0_d_926_122)">
<rect x="1.75" y="1.75" width="596.5" height="206.5" rx="43.25" fill="#F8F8F8" stroke="#5C87F1" stroke-width="3.5"/>
<path d="M56.925 65.65H60.275V70.425H56.925V65.65ZM56.9 57.4H59.55V57.925C59.55 61.8 57.475 65.175 53.075 66.35L51.575 63.8C55.275 62.825 56.9 60.4 56.9 57.925V57.4ZM57.6 57.4H60.275V57.925C60.275 60.3 61.95 62.65 65.625 63.6L64.15 66.15C59.75 65.025 57.6 61.7 57.6 57.925V57.4ZM52.275 55.8H64.95V58.425H52.275V55.8ZM56.925 53.275H60.275V56.95H56.925V53.275ZM67 53.05H70.325V76.275H67V53.05ZM51.5 71.975L51.1 69.275C55.15 69.275 60.85 69.225 65.725 68.5L65.975 70.925C60.95 71.9 55.5 71.95 51.5 71.975ZM75.148 55.15H86.273V70.725H75.148V55.15ZM83.023 57.75H78.423V68.1H83.023V57.75ZM89.873 53.05H93.223V76.275H89.873V53.05ZM97.6211 68.375H99.2461C101.996 68.375 104.421 68.325 107.271 67.875L107.521 70.55C104.571 71.05 102.071 71.125 99.2461 71.125H97.6211V68.375ZM97.5961 55.325H106.371V64.275H100.846V69.375H97.6211V61.65H103.146V57.975H97.5961V55.325ZM113.721 53.075H116.871V76.225H113.721V53.075ZM110.621 61.825H114.471V64.475H110.621V61.825ZM108.546 53.475H111.621V75.125H108.546V53.475Z" fill="black"/>
<path d="M50.85 114.523H64.739V115.679H50.85V114.523ZM57.089 112.058H58.483V114.999H57.089V112.058ZM52.601 111.616H63.124V112.772H52.601V111.616ZM52.601 107.655H63.005V108.794H53.995V112.296H52.601V107.655ZM57.769 116.784C61.05 116.784 63.039 117.787 63.039 119.538C63.039 121.323 61.05 122.309 57.769 122.309C54.488 122.309 52.499 121.323 52.499 119.538C52.499 117.787 54.488 116.784 57.769 116.784ZM57.769 117.872C55.372 117.872 53.927 118.484 53.927 119.538C53.927 120.609 55.372 121.204 57.769 121.204C60.183 121.204 61.611 120.609 61.611 119.538C61.611 118.484 60.183 117.872 57.769 117.872ZM70.5687 108.131C72.8297 108.131 74.4277 110.222 74.4277 113.486C74.4277 116.767 72.8297 118.858 70.5687 118.858C68.3077 118.858 66.7097 116.767 66.7097 113.486C66.7097 110.222 68.3077 108.131 70.5687 108.131ZM70.5687 109.406C69.0727 109.406 68.0527 111.004 68.0527 113.486C68.0527 115.985 69.0727 117.617 70.5687 117.617C72.0477 117.617 73.0847 115.985 73.0847 113.486C73.0847 111.004 72.0477 109.406 70.5687 109.406ZM76.8757 106.958H78.3037V122.326H76.8757V106.958ZM77.9637 113.095H80.8197V114.285H77.9637V113.095ZM93.3133 106.941H94.7243V122.343H93.3133V106.941ZM83.0113 117.464H84.2863C86.8533 117.464 89.1483 117.362 91.8683 116.92L92.0213 118.076C89.2333 118.535 86.9213 118.637 84.2863 118.637H83.0113V117.464ZM82.9773 108.386H90.0833V113.877H84.4223V117.906H83.0113V112.721H88.6553V109.542H82.9773V108.386ZM112.754 106.958H114.165V116.019H112.754V106.958ZM113.57 110.885H116.409V112.058H113.57V110.885ZM104.22 116.716H114.165V119.827H105.631V121.459H104.254V118.892H112.788V117.719H104.22V116.716ZM104.254 121.153H114.76V122.156H104.254V121.153ZM106.277 113.265H107.688V115.22H106.277V113.265ZM102.333 115.679L102.163 114.642C104.9 114.642 108.674 114.625 111.836 114.183L111.955 115.084C108.674 115.662 105.019 115.679 102.333 115.679ZM102.554 108.131H111.377V109.134H102.554V108.131ZM106.974 109.61C109.15 109.61 110.544 110.358 110.544 111.633C110.544 112.908 109.15 113.656 106.974 113.656C104.781 113.656 103.387 112.908 103.387 111.633C103.387 110.358 104.781 109.61 106.974 109.61ZM106.974 110.545C105.597 110.545 104.713 110.953 104.713 111.633C104.713 112.313 105.597 112.738 106.974 112.738C108.351 112.738 109.218 112.313 109.218 111.633C109.218 110.953 108.351 110.545 106.974 110.545ZM106.277 106.805H107.688V108.658H106.277V106.805ZM117.904 114.523H131.793V115.679H117.904V114.523ZM124.143 112.058H125.537V114.999H124.143V112.058ZM119.655 111.616H130.178V112.772H119.655V111.616ZM119.655 107.655H130.059V108.794H121.049V112.296H119.655V107.655ZM124.823 116.784C128.104 116.784 130.093 117.787 130.093 119.538C130.093 121.323 128.104 122.309 124.823 122.309C121.542 122.309 119.553 121.323 119.553 119.538C119.553 117.787 121.542 116.784 124.823 116.784ZM124.823 117.872C122.426 117.872 120.981 118.484 120.981 119.538C120.981 120.609 122.426 121.204 124.823 121.204C127.237 121.204 128.665 120.609 128.665 119.538C128.665 118.484 127.237 117.872 124.823 117.872ZM140.478 107.213C143.861 107.213 145.884 108.165 145.884 109.882C145.884 111.599 143.861 112.551 140.478 112.551C137.078 112.551 135.072 111.599 135.072 109.882C135.072 108.165 137.078 107.213 140.478 107.213ZM140.478 108.284C137.962 108.284 136.517 108.862 136.517 109.882C136.517 110.902 137.962 111.48 140.478 111.48C142.977 111.48 144.422 110.902 144.422 109.882C144.422 108.862 142.977 108.284 140.478 108.284ZM133.525 113.571H147.414V114.71H133.525V113.571ZM135.208 116.019H145.646V119.487H136.636V121.357H135.242V118.467H144.252V117.107H135.208V116.019ZM135.242 121.051H146.105V122.156H135.242V121.051ZM164.084 106.958H165.495V122.326H164.084V106.958ZM165.155 113.265H168.011V114.455H165.155V113.265ZM153.595 109.406H162.656V110.562H153.595V109.406ZM158.185 111.837C160.361 111.837 161.925 113.299 161.925 115.373C161.925 117.447 160.361 118.909 158.185 118.909C156.026 118.909 154.445 117.447 154.445 115.373C154.445 113.299 156.026 111.837 158.185 111.837ZM158.185 113.01C156.791 113.01 155.788 113.979 155.788 115.373C155.788 116.75 156.791 117.736 158.185 117.736C159.579 117.736 160.582 116.75 160.582 115.373C160.582 113.979 159.579 113.01 158.185 113.01ZM157.454 107.145H158.865V109.933H157.454V107.145ZM176.68 109.661H180.981V110.817H176.68V109.661ZM176.68 112.942H181.015V114.115H176.68V112.942ZM170.016 108.284H177.037V115.492H170.016V108.284ZM175.643 109.423H171.393V114.353H175.643V109.423ZM180.539 106.975H181.95V118.195H180.539V106.975ZM172.073 120.83H182.324V121.986H172.073V120.83ZM172.073 117.175H173.484V121.357H172.073V117.175ZM192.624 112.16H196.908V113.316H192.624V112.16ZM188.918 108.284H190.074V111.021C190.074 114.472 188.255 117.77 185.824 119.079L184.923 117.957C187.184 116.835 188.918 113.877 188.918 111.021V108.284ZM189.19 108.284H190.329V111.021C190.329 113.826 192.063 116.614 194.29 117.668L193.457 118.807C190.975 117.549 189.19 114.387 189.19 111.021V108.284ZM196.211 106.941H197.605V122.343H196.211V106.941ZM215.601 106.958H217.012V114.795H215.601V106.958ZM216.4 110.409H219.29V111.582H216.4V110.409ZM205.724 107.961H212.779V114.234H205.724V107.961ZM211.402 109.1H207.101V113.112H211.402V109.1ZM206.693 120.762H207.424C208.342 120.762 209.821 120.677 211.13 120.235L211.368 121.374C209.889 121.85 208.478 121.918 207.424 121.918H206.693V120.762ZM206.693 116.206H208.07V121.068H206.693V116.206ZM210.807 116.359H218.525V117.413H210.807V116.359ZM214.683 117.974C216.349 117.974 217.522 118.824 217.522 120.133C217.522 121.476 216.349 122.309 214.683 122.309C213 122.309 211.827 121.476 211.827 120.133C211.827 118.824 213 117.974 214.683 117.974ZM214.683 118.977C213.731 118.977 213.085 119.436 213.085 120.133C213.085 120.847 213.731 121.306 214.683 121.306C215.601 121.306 216.264 120.847 216.264 120.133C216.264 119.436 215.601 118.977 214.683 118.977ZM213.986 115.016H215.363V117.107H213.986V115.016ZM220.717 115.033H234.606V116.189H220.717V115.033ZM222.519 120.83H233.076V121.986H222.519V120.83ZM222.519 117.532H223.93V121.187H222.519V117.532ZM227.67 107.468C230.951 107.468 233.076 108.624 233.076 110.545C233.076 112.449 230.951 113.605 227.67 113.605C224.372 113.605 222.264 112.449 222.264 110.545C222.264 108.624 224.372 107.468 227.67 107.468ZM227.67 108.624C225.256 108.624 223.709 109.338 223.709 110.545C223.709 111.752 225.256 112.466 227.67 112.466C230.084 112.466 231.631 111.752 231.631 110.545C231.631 109.338 230.084 108.624 227.67 108.624ZM252.091 106.958H253.502V114.829H252.091V106.958ZM248.759 110.647H252.312V111.786H248.759V110.647ZM247.161 107.706H248.64C248.64 111.531 245.988 114.03 241.585 115.152L241.092 114.013C244.985 113.061 247.161 111.038 247.161 108.335V107.706ZM241.908 107.706H248.3V108.845H241.908V107.706ZM243.608 115.492H253.502V119.283H245.053V121.714H243.659V118.195H252.108V116.631H243.608V115.492ZM243.659 121.051H254.012V122.173H243.659V121.051ZM261.553 108.403H262.896V112.16H266.109V108.403H267.418V118.484H261.553V108.403ZM262.896 113.299V117.328H266.109V113.299H262.896ZM272.705 106.958H274.065V122.326H272.705V106.958ZM270.24 113.044H273.198V114.2H270.24V113.044ZM269.305 107.281H270.648V121.561H269.305V107.281ZM282.87 114.183H284.264V116.546H282.87V114.183ZM283.584 107.145C286.967 107.145 288.99 108.08 288.99 109.797C288.99 111.514 286.967 112.466 283.584 112.466C280.184 112.466 278.178 111.514 278.178 109.797C278.178 108.08 280.184 107.145 283.584 107.145ZM283.584 108.216C281.068 108.216 279.623 108.794 279.623 109.797C279.623 110.817 281.068 111.395 283.584 111.395C286.083 111.395 287.528 110.817 287.528 109.797C287.528 108.794 286.083 108.216 283.584 108.216ZM276.631 113.452H290.52V114.608H276.631V113.452ZM278.314 116.019H288.752V119.487H279.742V121.357H278.348V118.467H287.358V117.107H278.314V116.019ZM278.348 121.051H289.211V122.156H278.348V121.051ZM302.991 107.502H304.232V108.352C304.232 111.293 301.24 113.401 298.044 113.945L297.483 112.806C300.288 112.381 302.991 110.545 302.991 108.352V107.502ZM303.246 107.502H304.47V108.352C304.47 110.494 307.207 112.381 309.978 112.806L309.417 113.945C306.255 113.401 303.246 111.259 303.246 108.352V107.502ZM302.991 116.478H304.385V122.326H302.991V116.478ZM296.786 115.611H310.675V116.784H296.786V115.611ZM320.748 116.41H321.836V117.243C321.836 119.249 320.578 121.272 318.368 122.122L317.654 121.068C319.592 120.371 320.748 118.722 320.748 117.243V116.41ZM321.054 116.41H322.108V117.243C322.108 118.79 323.026 120.439 324.862 121.187L324.267 122.258C322.057 121.391 321.054 119.283 321.054 117.243V116.41ZM326.426 116.41H327.48V117.243C327.48 119.045 326.46 121.323 324.267 122.258L323.672 121.187C325.491 120.354 326.426 118.569 326.426 117.243V116.41ZM326.715 116.41H327.803V117.243C327.803 118.824 328.942 120.405 330.897 121.068L330.183 122.122C327.939 121.306 326.715 119.368 326.715 117.243V116.41ZM328.092 106.975H329.52V115.747H328.092V106.975ZM321.275 107.859C323.604 107.859 325.27 109.321 325.27 111.446C325.27 113.571 323.604 115.016 321.275 115.016C318.946 115.016 317.263 113.571 317.263 111.446C317.263 109.321 318.946 107.859 321.275 107.859ZM321.275 109.032C319.745 109.032 318.64 110.018 318.64 111.446C318.64 112.874 319.745 113.843 321.275 113.843C322.805 113.843 323.91 112.874 323.91 111.446C323.91 110.018 322.805 109.032 321.275 109.032ZM336.472 116.325H337.577V117.209C337.577 119.249 336.319 121.289 334.109 122.139L333.395 121.085C335.333 120.371 336.472 118.705 336.472 117.209V116.325ZM336.795 116.325H337.849V117.209C337.849 118.773 338.75 120.456 340.603 121.204L340.008 122.275C337.781 121.408 336.795 119.266 336.795 117.209V116.325ZM342.167 116.325H343.204V117.209C343.204 119.028 342.201 121.34 340.008 122.275L339.396 121.204C341.232 120.354 342.167 118.552 342.167 117.209V116.325ZM342.439 116.325H343.544V117.209C343.544 118.824 344.666 120.422 346.638 121.085L345.907 122.139C343.68 121.323 342.439 119.351 342.439 117.209V116.325ZM340.11 110.8H344.173V111.973H340.11V110.8ZM336.744 107.825C339.005 107.825 340.688 109.304 340.688 111.429C340.688 113.537 339.005 115.016 336.744 115.016C334.483 115.016 332.817 113.537 332.817 111.429C332.817 109.304 334.483 107.825 336.744 107.825ZM336.744 108.998C335.248 108.998 334.16 110.018 334.16 111.429C334.16 112.84 335.248 113.843 336.744 113.843C338.223 113.843 339.328 112.84 339.328 111.429C339.328 110.018 338.223 108.998 336.744 108.998ZM343.782 106.958H345.193V115.713H343.782V106.958ZM349.663 108.488H359.557V109.661H349.663V108.488ZM348.201 119.011H362.09V120.184H348.201V119.011ZM353.59 113.52H355.001V119.589H353.59V113.52ZM359.03 108.488H360.424V110.018C360.424 111.922 360.424 114.03 359.863 117.141L358.452 116.954C359.03 114.013 359.03 111.854 359.03 110.018V108.488ZM369.171 114.268H370.31C373.319 114.268 375.019 114.2 376.991 113.792L377.161 114.931C375.121 115.339 373.37 115.441 370.31 115.441H369.171V114.268ZM369.171 108.029H376.158V109.168H370.548V114.642H369.171V108.029ZM370.718 116.937H380.969V122.326H379.558V118.093H370.718V116.937ZM379.558 106.958H380.969V116.155H379.558V106.958ZM375.257 110.936H379.949V112.075H375.257V110.936ZM383.96 115.067H397.883V116.223H383.96V115.067ZM390.318 115.645H391.729V119.181H390.318V115.645ZM385.728 120.83H396.336V121.986H385.728V120.83ZM385.728 117.821H387.122V121.272H385.728V117.821ZM385.813 107.434H387.207V109.389H394.636V107.434H396.047V113.588H385.813V107.434ZM387.207 110.494V112.449H394.636V110.494H387.207ZM405.838 112.925H408.745V114.098H405.838V112.925ZM411.312 106.958H412.672V122.326H411.312V106.958ZM408.269 107.281H409.612V121.561H408.269V107.281ZM403.067 108.233C405.056 108.233 406.348 110.29 406.348 113.588C406.348 116.886 405.056 118.943 403.067 118.943C401.078 118.943 399.803 116.886 399.803 113.588C399.803 110.29 401.078 108.233 403.067 108.233ZM403.067 109.542C401.86 109.542 401.095 111.106 401.095 113.588C401.095 116.07 401.86 117.634 403.067 117.634C404.291 117.634 405.056 116.07 405.056 113.588C405.056 111.106 404.291 109.542 403.067 109.542ZM430.14 106.941H431.568V122.343H430.14V106.941ZM431.228 113.01H434.084V114.2H431.228V113.01ZM420.399 117.328H421.606C424.445 117.328 426.434 117.226 428.729 116.801L428.882 117.991C426.519 118.433 424.496 118.518 421.606 118.518H420.399V117.328ZM420.399 108.437H427.539V109.593H421.793V117.855H420.399V108.437ZM446.884 109.253H449.553V110.426H446.884V109.253ZM446.884 112.517H449.553V113.69H446.884V112.517ZM439.676 107.859C441.988 107.859 443.688 109.355 443.688 111.497C443.688 113.622 441.988 115.101 439.676 115.101C437.364 115.101 435.664 113.622 435.664 111.497C435.664 109.355 437.364 107.859 439.676 107.859ZM439.676 109.049C438.146 109.049 437.041 110.052 437.041 111.497C437.041 112.942 438.146 113.928 439.676 113.928C441.206 113.928 442.311 112.942 442.311 111.497C442.311 110.052 441.206 109.049 439.676 109.049ZM445.898 106.958H447.309V116.053H445.898V106.958ZM442.413 116.546C445.541 116.546 447.462 117.617 447.462 119.419C447.462 121.238 445.541 122.292 442.413 122.292C439.285 122.292 437.364 121.238 437.364 119.419C437.364 117.617 439.285 116.546 442.413 116.546ZM442.413 117.685C440.135 117.685 438.741 118.314 438.741 119.419C438.741 120.524 440.135 121.17 442.413 121.17C444.691 121.17 446.085 120.524 446.085 119.419C446.085 118.314 444.691 117.685 442.413 117.685ZM461.537 106.975H462.948V118.501H461.537V106.975ZM462.506 112.007H465.226V113.197H462.506V112.007ZM451.065 108.828H460.143V109.967H451.065V108.828ZM455.604 110.817C457.78 110.817 459.276 111.956 459.276 113.69C459.276 115.407 457.78 116.546 455.604 116.546C453.411 116.546 451.915 115.407 451.915 113.69C451.915 111.956 453.411 110.817 455.604 110.817ZM455.604 111.922C454.21 111.922 453.258 112.619 453.258 113.69C453.258 114.744 454.21 115.441 455.604 115.441C456.981 115.441 457.933 114.744 457.933 113.69C457.933 112.619 456.981 111.922 455.604 111.922ZM454.89 106.958H456.301V109.423H454.89V106.958ZM453.377 120.83H463.645V121.986H453.377V120.83ZM453.377 117.583H454.788V121.323H453.377V117.583ZM478.189 116.597C481.317 116.597 483.238 117.651 483.238 119.453C483.238 121.255 481.317 122.309 478.189 122.309C475.061 122.309 473.14 121.255 473.14 119.453C473.14 117.651 475.061 116.597 478.189 116.597ZM478.189 117.736C475.911 117.736 474.517 118.365 474.517 119.453C474.517 120.558 475.911 121.187 478.189 121.187C480.467 121.187 481.861 120.558 481.861 119.453C481.861 118.365 480.467 117.736 478.189 117.736ZM481.674 106.958H483.085V116.189H481.674V106.958ZM482.694 110.817H485.363V112.007H482.694V110.817ZM471.797 107.927H473.191V110.222H477.526V107.927H478.903V115.016H471.797V107.927ZM473.191 111.344V113.877H477.526V111.344H473.191ZM494.168 109.661H498.469V110.817H494.168V109.661ZM494.168 112.942H498.503V114.115H494.168V112.942ZM487.504 108.284H494.525V115.492H487.504V108.284ZM493.131 109.423H488.881V114.353H493.131V109.423ZM498.027 106.975H499.438V118.195H498.027V106.975ZM489.561 120.83H499.812V121.986H489.561V120.83ZM489.561 117.175H490.972V121.357H489.561V117.175ZM508.668 112.925H511.575V114.098H508.668V112.925ZM514.142 106.958H515.502V122.326H514.142V106.958ZM511.099 107.281H512.442V121.561H511.099V107.281ZM505.897 108.233C507.886 108.233 509.178 110.29 509.178 113.588C509.178 116.886 507.886 118.943 505.897 118.943C503.908 118.943 502.633 116.886 502.633 113.588C502.633 110.29 503.908 108.233 505.897 108.233ZM505.897 109.542C504.69 109.542 503.925 111.106 503.925 113.588C503.925 116.07 504.69 117.634 505.897 117.634C507.121 117.634 507.886 116.07 507.886 113.588C507.886 111.106 507.121 109.542 505.897 109.542ZM525.751 112.16H530.035V113.316H525.751V112.16ZM522.045 108.284H523.201V111.021C523.201 114.472 521.382 117.77 518.951 119.079L518.05 117.957C520.311 116.835 522.045 113.877 522.045 111.021V108.284ZM522.317 108.284H523.456V111.021C523.456 113.826 525.19 116.614 527.417 117.668L526.584 118.807C524.102 117.549 522.317 114.387 522.317 111.021V108.284ZM529.338 106.941H530.732V122.343H529.338V106.941ZM54.709 137.825H55.882V139.406C55.882 142.381 54.199 144.812 51.564 145.798L50.833 144.642C53.179 143.809 54.709 141.752 54.709 139.406V137.825ZM54.964 137.825H56.12V139.355C56.12 141.531 57.616 143.452 59.86 144.234L59.095 145.339C56.613 144.404 54.964 142.143 54.964 139.355V137.825ZM62.07 136.958H63.481V146.053H62.07V136.958ZM58.432 146.495C61.594 146.495 63.549 147.566 63.549 149.402C63.549 151.238 61.594 152.292 58.432 152.292C55.253 152.292 53.298 151.238 53.298 149.402C53.298 147.566 55.253 146.495 58.432 146.495ZM58.432 147.617C56.12 147.617 54.709 148.28 54.709 149.402C54.709 150.524 56.12 151.187 58.432 151.187C60.744 151.187 62.155 150.524 62.155 149.402C62.155 148.28 60.744 147.617 58.432 147.617ZM58.738 140.205H62.376V141.378H58.738V140.205ZM70.2627 138.607H71.4187V139.848C71.4187 142.67 69.7187 145.033 67.1347 145.968L66.4207 144.846C68.7327 144.03 70.2627 142.041 70.2627 139.848V138.607ZM70.5177 138.607H71.6737V139.831C71.6737 141.837 73.1357 143.639 75.3967 144.387L74.7167 145.492C72.1497 144.642 70.5177 142.449 70.5177 139.831V138.607ZM66.8457 138.097H75.0567V139.253H66.8457V138.097ZM76.9947 136.958H78.4057V146.223H76.9947V136.958ZM78.0147 140.851H80.6837V142.041H78.0147V140.851ZM73.5097 146.631C76.6377 146.631 78.5587 147.668 78.5587 149.453C78.5587 151.255 76.6377 152.292 73.5097 152.292C70.3817 152.292 68.4607 151.255 68.4607 149.453C68.4607 147.668 70.3817 146.631 73.5097 146.631ZM73.5097 147.77C71.2317 147.77 69.8377 148.382 69.8377 149.453C69.8377 150.541 71.2317 151.187 73.5097 151.187C75.7877 151.187 77.1817 150.541 77.1817 149.453C77.1817 148.382 75.7877 147.77 73.5097 147.77ZM93.7213 136.975H95.0643V146.478H93.7213V136.975ZM91.2223 141.174H94.1293V142.33H91.2223V141.174ZM90.4573 137.196H91.8003V146.257H90.4573V137.196ZM82.0423 138.709H89.8283V139.831H82.0423V138.709ZM85.9523 140.596C87.8733 140.596 89.2163 141.633 89.2163 143.231C89.2163 144.829 87.8733 145.866 85.9523 145.866C84.0143 145.866 82.6713 144.829 82.6713 143.231C82.6713 141.633 84.0143 140.596 85.9523 140.596ZM85.9523 141.667C84.7453 141.667 83.9293 142.279 83.9293 143.231C83.9293 144.183 84.7453 144.812 85.9523 144.812C87.1423 144.812 87.9583 144.183 87.9583 143.231C87.9583 142.279 87.1423 141.667 85.9523 141.667ZM85.2553 137.026H86.6323V139.372H85.2553V137.026ZM86.1733 146.937H87.2613V147.464C87.2613 149.402 85.9863 151.34 83.7593 152.139L83.0963 151.085C85.0173 150.439 86.1733 148.858 86.1733 147.464V146.937ZM86.4963 146.937H87.5333V147.464C87.5333 148.943 88.4343 150.507 90.2703 151.204L89.6753 152.275C87.4823 151.459 86.4963 149.419 86.4963 147.464V146.937ZM91.8173 146.937H92.8543V147.464C92.8543 149.198 91.8513 151.391 89.6753 152.275L89.0973 151.204C90.8823 150.422 91.8173 148.739 91.8173 147.464V146.937ZM92.1063 146.937H93.1943V147.464C93.1943 148.96 94.3503 150.473 96.2883 151.085L95.6083 152.139C93.3643 151.374 92.1063 149.504 92.1063 147.464V146.937ZM108.153 136.941H109.581V152.343H108.153V136.941ZM109.241 143.01H112.097V144.2H109.241V143.01ZM98.412 147.328H99.619C102.458 147.328 104.447 147.226 106.742 146.801L106.895 147.991C104.532 148.433 102.509 148.518 99.619 148.518H98.412V147.328ZM98.412 138.437H105.552V139.593H99.806V147.855H98.412V138.437ZM114.867 138.488H124.761V139.661H114.867V138.488ZM113.405 149.011H127.294V150.184H113.405V149.011ZM118.794 143.52H120.205V149.589H118.794V143.52ZM124.234 138.488H125.628V140.018C125.628 141.922 125.628 144.03 125.067 147.141L123.656 146.954C124.234 144.013 124.234 141.854 124.234 140.018V138.488ZM136.755 137.91H137.877V139.967C137.877 142.262 136.551 144.676 134.29 145.679L133.525 144.574C135.548 143.69 136.755 141.701 136.755 139.967V137.91ZM136.976 137.91H138.098V139.967C138.098 141.667 139.254 143.401 141.226 144.166L140.461 145.237C138.251 144.353 136.976 142.228 136.976 139.967V137.91ZM145.136 136.975H146.479V146.444H145.136V136.975ZM142.688 141.072H145.595V142.228H142.688V141.072ZM141.838 137.264H143.181V145.951H141.838V137.264ZM141.43 146.784C144.592 146.784 146.564 147.804 146.564 149.555C146.564 151.289 144.592 152.292 141.43 152.292C138.251 152.292 136.313 151.289 136.313 149.555C136.313 147.804 138.251 146.784 141.43 146.784ZM141.43 147.889C139.118 147.889 137.69 148.501 137.69 149.555C137.69 150.592 139.118 151.204 141.43 151.204C143.742 151.204 145.153 150.592 145.153 149.555C145.153 148.501 143.742 147.889 141.43 147.889ZM159.687 136.958H161.098V145.968H159.687V136.958ZM160.707 140.834H163.376V142.024H160.707V140.834ZM155.437 137.944H156.916C156.916 141.82 154.213 144.591 149.725 145.815L149.147 144.71C153.125 143.622 155.437 141.395 155.437 138.556V137.944ZM149.827 137.944H156.219V139.083H149.827V137.944ZM151.119 146.682H161.098V152.326H159.687V147.821H151.119V146.682ZM175.326 136.958H176.737V145.883H175.326V136.958ZM176.125 140.868H179.015V142.058H176.125V140.868ZM167.081 146.563H168.458V148.195H175.343V146.563H176.737V152.122H167.081V146.563ZM168.458 149.283V150.983H175.343V149.283H168.458ZM164.854 138.522H173.932V139.678H164.854V138.522ZM169.393 140.375C171.586 140.375 173.065 141.446 173.065 143.078C173.065 144.71 171.586 145.781 169.393 145.781C167.183 145.781 165.704 144.71 165.704 143.078C165.704 141.446 167.183 140.375 169.393 140.375ZM169.393 141.446C167.982 141.446 167.047 142.092 167.047 143.078C167.047 144.064 167.982 144.71 169.393 144.71C170.77 144.71 171.722 144.064 171.722 143.078C171.722 142.092 170.77 141.446 169.393 141.446ZM168.679 136.805H170.09V139.151H168.679V136.805ZM191.627 136.958H193.038V152.326H191.627V136.958ZM181.427 138.454H182.821V147.974H181.427V138.454ZM181.427 147.141H182.685C185.014 147.141 187.445 146.971 190.046 146.427L190.216 147.634C187.547 148.178 185.116 148.365 182.685 148.365H181.427V147.141ZM206.484 136.941H207.912V152.343H206.484V136.941ZM207.572 143.01H210.428V144.2H207.572V143.01ZM196.743 147.328H197.95C200.789 147.328 202.778 147.226 205.073 146.801L205.226 147.991C202.863 148.433 200.84 148.518 197.95 148.518H196.743V147.328ZM196.743 138.437H203.883V139.593H198.137V147.855H196.743V138.437ZM213.288 151.115C212.958 151.115 212.675 150.998 212.437 150.765C212.2 150.527 212.081 150.241 212.081 149.907C212.081 149.577 212.2 149.296 212.437 149.062C212.675 148.825 212.958 148.706 213.288 148.706C213.618 148.706 213.902 148.825 214.14 149.062C214.377 149.296 214.496 149.577 214.496 149.907C214.496 150.129 214.439 150.332 214.327 150.517C214.218 150.698 214.073 150.843 213.892 150.952C213.711 151.06 213.51 151.115 213.288 151.115Z" fill="black"/>
<path d="M139.943 68.1477H138.17C138.102 67.7689 137.975 67.4356 137.79 67.1477C137.604 66.8598 137.377 66.6155 137.108 66.4148C136.839 66.214 136.538 66.0625 136.205 65.9602C135.875 65.858 135.525 65.8068 135.153 65.8068C134.483 65.8068 133.883 65.9754 133.352 66.3125C132.826 66.6496 132.409 67.1439 132.102 67.7955C131.799 68.447 131.648 69.2424 131.648 70.1818C131.648 71.1288 131.799 71.928 132.102 72.5795C132.409 73.2311 132.828 73.7235 133.358 74.0568C133.888 74.3902 134.485 74.5568 135.148 74.5568C135.515 74.5568 135.864 74.5076 136.193 74.4091C136.527 74.3068 136.828 74.1572 137.097 73.9602C137.366 73.7633 137.593 73.5227 137.778 73.2386C137.968 72.9508 138.098 72.6212 138.17 72.25L139.943 72.2557C139.848 72.8277 139.665 73.3542 139.392 73.8352C139.123 74.3125 138.777 74.7254 138.352 75.0739C137.932 75.4186 137.451 75.6856 136.909 75.875C136.367 76.0644 135.777 76.1591 135.136 76.1591C134.129 76.1591 133.231 75.9205 132.443 75.4432C131.655 74.9621 131.034 74.2746 130.58 73.3807C130.129 72.4867 129.903 71.4205 129.903 70.1818C129.903 68.9394 130.131 67.8731 130.585 66.983C131.04 66.089 131.661 65.4034 132.449 64.9261C133.237 64.4451 134.133 64.2045 135.136 64.2045C135.754 64.2045 136.33 64.2936 136.864 64.4716C137.402 64.6458 137.884 64.9034 138.312 65.2443C138.741 65.5814 139.095 65.9943 139.375 66.483C139.655 66.9678 139.845 67.5227 139.943 68.1477ZM151.436 64.3636V76H149.822L143.908 67.4659H143.8V76H142.044V64.3636H143.669L149.589 72.9091H149.697V64.3636H151.436ZM160.344 67.4205C160.283 66.8826 160.033 66.4659 159.594 66.1705C159.154 65.8712 158.601 65.7216 157.935 65.7216C157.457 65.7216 157.045 65.7973 156.696 65.9489C156.348 66.0966 156.077 66.3011 155.884 66.5625C155.694 66.8201 155.599 67.1136 155.599 67.4432C155.599 67.7197 155.664 67.9583 155.793 68.1591C155.925 68.3598 156.098 68.5284 156.31 68.6648C156.526 68.7973 156.757 68.9091 157.003 69C157.249 69.0871 157.486 69.1591 157.713 69.2159L158.849 69.5114C159.221 69.6023 159.601 69.7254 159.991 69.8807C160.382 70.036 160.743 70.2405 161.077 70.4943C161.41 70.7481 161.679 71.0625 161.884 71.4375C162.092 71.8125 162.196 72.2614 162.196 72.7841C162.196 73.4432 162.026 74.0284 161.685 74.5398C161.348 75.0511 160.857 75.4545 160.213 75.75C159.573 76.0455 158.798 76.1932 157.889 76.1932C157.018 76.1932 156.264 76.0549 155.628 75.7784C154.991 75.5019 154.493 75.1098 154.134 74.6023C153.774 74.0909 153.575 73.4848 153.537 72.7841H155.298C155.332 73.2045 155.469 73.5549 155.707 73.8352C155.95 74.1117 156.259 74.3182 156.634 74.4545C157.012 74.5871 157.427 74.6534 157.878 74.6534C158.374 74.6534 158.815 74.5758 159.202 74.4205C159.592 74.2614 159.899 74.0417 160.122 73.7614C160.346 73.4773 160.457 73.1458 160.457 72.767C160.457 72.4223 160.359 72.1402 160.162 71.9205C159.969 71.7008 159.705 71.5189 159.372 71.375C159.043 71.2311 158.67 71.1042 158.253 70.9943L156.878 70.6193C155.946 70.3655 155.207 69.9924 154.662 69.5C154.12 69.0076 153.849 68.3561 153.849 67.5455C153.849 66.875 154.031 66.2898 154.395 65.7898C154.759 65.2898 155.251 64.9015 155.872 64.625C156.493 64.3447 157.194 64.2045 157.974 64.2045C158.762 64.2045 159.457 64.3428 160.06 64.6193C160.666 64.8958 161.143 65.2765 161.491 65.7614C161.84 66.2424 162.022 66.7955 162.037 67.4205H160.344ZM172.21 76.1591C171.498 76.1591 170.858 76.0227 170.29 75.75C169.725 75.4735 169.275 75.0947 168.938 74.6136C168.6 74.1326 168.42 73.5833 168.398 72.9659H170.102C170.144 73.4659 170.366 73.8769 170.767 74.1989C171.169 74.5208 171.65 74.6818 172.21 74.6818C172.657 74.6818 173.053 74.5795 173.398 74.375C173.746 74.1667 174.019 73.8807 174.216 73.517C174.417 73.1534 174.517 72.7386 174.517 72.2727C174.517 71.7992 174.415 71.3769 174.21 71.0057C174.006 70.6345 173.723 70.3428 173.364 70.1307C173.008 69.9186 172.598 69.8106 172.136 69.8068C171.784 69.8068 171.43 69.8674 171.074 69.9886C170.718 70.1098 170.43 70.2689 170.21 70.4659L168.602 70.2273L169.256 64.3636H175.653V65.8693H170.716L170.347 69.125H170.415C170.642 68.9053 170.943 68.7216 171.318 68.5739C171.697 68.4261 172.102 68.3523 172.534 68.3523C173.242 68.3523 173.873 68.5208 174.426 68.858C174.983 69.1951 175.42 69.6553 175.739 70.2386C176.061 70.8182 176.22 71.4848 176.216 72.2386C176.22 72.9924 176.049 73.6648 175.705 74.2557C175.364 74.8466 174.89 75.3125 174.284 75.6534C173.682 75.9905 172.991 76.1591 172.21 76.1591ZM188.5 62.784H189.828V77.248H188.5V62.784ZM184.26 64.336H185.572C185.572 68.528 183.684 72.192 178.852 74.56L178.148 73.488C182.324 71.472 184.26 68.4 184.26 64.56V64.336ZM178.804 64.336H184.836V65.424H178.804V64.336Z" fill="black"/>
</g>
<defs>
<filter id="filter0_d_926_122" x="0" y="0" width="608" height="218" filterUnits="userSpaceOnUse" color-interpolation-filters="sRGB">
<feFlood flood-opacity="0" result="BackgroundImageFix"/>
<feColorMatrix in="SourceAlpha" type="matrix" values="0 0 0 0 0 0 0 0 0 0 0 0 0 0 0 0 0 0 127 0" result="hardAlpha"/>
<feOffset dx="4" dy="4"/>
<feGaussianBlur stdDeviation="2"/>
<feComposite in2="hardAlpha" operator="out"/>
<feColorMatrix type="matrix" values="0 0 0 0 0 0 0 0 0 0 0 0 0 0 0 0 0 0 0.25 0"/>
<feBlend mode="normal" in2="BackgroundImageFix" result="effect1_dropShadow_926_122"/>
<feBlend mode="normal" in="SourceGraphic" in2="effect1_dropShadow_926_122" result="shape"/>
</filter>
</defs>
</svg>
