<svg width="708" height="228" viewBox="0 0 708 228" fill="none" xmlns="http://www.w3.org/2000/svg">
<g filter="url(#filter0_d_423_198)">
<rect x="1.75" y="1.75" width="696.5" height="216.5" rx="43.25" fill="white" stroke="#5C87F1" stroke-width="3.5"/>
<path d="M62.696 109.152H68.168V110.784H62.696V109.152ZM67.04 103.2H69.032V119.088H67.04V103.2ZM55.184 122.76H69.632V124.392H55.184V122.76ZM55.184 117.696H57.176V123.6H55.184V117.696ZM56.72 105.888H58.352V107.64C58.352 111.576 55.904 114.984 52.28 116.328L51.248 114.744C54.488 113.592 56.72 110.712 56.72 107.64V105.888ZM57.104 105.888H58.712V107.616C58.712 110.424 60.824 113.16 63.968 114.264L62.96 115.824C59.432 114.552 57.104 111.288 57.104 107.616V105.888ZM51.872 104.952H63.464V106.56H51.872V104.952ZM82.9981 116.856C87.6061 116.856 90.5581 118.368 90.5581 120.864C90.5581 123.336 87.6061 124.824 82.9981 124.824C78.3661 124.824 75.4381 123.336 75.4381 120.864C75.4381 118.368 78.3661 116.856 82.9981 116.856ZM82.9981 118.416C79.5901 118.416 77.4061 119.352 77.4061 120.864C77.4061 122.352 79.5901 123.288 82.9981 123.288C86.4061 123.288 88.5661 122.352 88.5661 120.864C88.5661 119.352 86.4061 118.416 82.9981 118.416ZM75.6061 104.256H89.5741V105.888H75.6061V104.256ZM73.2781 113.28H92.8621V114.888H73.2781V113.28ZM81.3181 109.104H83.2861V113.736H81.3181V109.104ZM88.4221 104.256H90.3661V106.104C90.3661 107.856 90.3661 109.608 89.7901 111.864L87.8221 111.624C88.4221 109.392 88.4221 107.808 88.4221 106.104V104.256ZM117.476 103.176H119.468V114.408H117.476V103.176ZM105.452 115.512H119.492V120.72H107.444V123.696H105.5V119.232H117.524V117.072H105.452V115.512ZM105.5 123.048H120.212V124.632H105.5V123.048ZM107.348 103.8H109.004V105.456C109.004 109.464 106.508 112.872 102.836 114.216L101.852 112.632C105.116 111.48 107.348 108.6 107.348 105.456V103.8ZM107.708 103.8H109.34V105.456C109.34 108.456 111.62 111.168 114.836 112.224L113.852 113.784C110.204 112.536 107.708 109.344 107.708 105.456V103.8ZM124.674 113.928H126.234C130.506 113.928 132.618 113.856 135.21 113.4L135.426 115.008C132.738 115.488 130.578 115.56 126.234 115.56H124.674V113.928ZM124.626 104.472H133.986V110.64H126.642V114.912H124.674V109.08H132.018V106.104H124.626V104.472ZM139.626 103.2H141.618V116.52H139.626V103.2ZM135.426 106.392H140.082V108.024H135.426V106.392ZM135.426 110.88H140.082V112.512H135.426V110.88ZM127.098 117.696H141.618V124.92H139.626V119.328H127.098V117.696ZM161.608 103.152H163.6V124.896H161.608V103.152ZM152.152 104.832C155.368 104.832 157.672 107.784 157.672 112.392C157.672 117.024 155.368 119.976 152.152 119.976C148.96 119.976 146.656 117.024 146.656 112.392C146.656 107.784 148.96 104.832 152.152 104.832ZM152.152 106.632C150.04 106.632 148.552 108.888 148.552 112.392C148.552 115.92 150.04 118.224 152.152 118.224C154.288 118.224 155.752 115.92 155.752 112.392C155.752 108.888 154.288 106.632 152.152 106.632ZM174.27 116.016H193.95V117.648H174.27V116.016ZM183.054 116.784H185.022V124.872H183.054V116.784ZM176.742 104.04H178.734V107.016H189.462V104.04H191.43V113.424H176.742V104.04ZM178.734 108.624V111.816H189.462V108.624H178.734ZM204.868 104.904H206.644V105.552C206.644 109.056 202.66 111.456 198.172 112.008L197.452 110.448C201.34 109.992 204.868 108.024 204.868 105.552V104.904ZM205.708 104.904H207.46V105.552C207.46 108.024 210.988 110.016 214.876 110.448L214.156 112.008C209.668 111.456 205.708 109.056 205.708 105.552V104.904ZM198.148 104.064H214.204V105.672H198.148V104.064ZM196.348 114.048H216.028V115.68H196.348V114.048ZM205.156 110.808H207.124V114.84H205.156V110.808ZM198.532 117.84H213.532V124.872H211.54V119.448H198.532V117.84ZM234.818 103.2H236.714V116.616H234.818V103.2ZM231.29 109.128H235.394V110.76H231.29V109.128ZM230.21 103.512H232.106V116.304H230.21V103.512ZM218.33 105.648H229.322V107.232H218.33V105.648ZM223.85 108.312C226.562 108.312 228.458 109.776 228.458 112.032C228.458 114.288 226.562 115.752 223.85 115.752C221.114 115.752 219.218 114.288 219.218 112.032C219.218 109.776 221.114 108.312 223.85 108.312ZM223.85 109.824C222.146 109.824 220.994 110.688 220.994 112.032C220.994 113.376 222.146 114.264 223.85 114.264C225.53 114.264 226.682 113.376 226.682 112.032C226.682 110.688 225.53 109.824 223.85 109.824ZM222.866 103.272H224.81V106.584H222.866V103.272ZM224.162 117.264H225.698V118.008C225.698 120.744 223.898 123.48 220.754 124.608L219.818 123.12C222.53 122.208 224.162 119.976 224.162 118.008V117.264ZM224.618 117.264H226.082V118.008C226.082 120.096 227.354 122.304 229.946 123.288L229.106 124.8C226.01 123.648 224.618 120.768 224.618 118.008V117.264ZM232.13 117.264H233.594V118.008C233.594 120.456 232.178 123.552 229.106 124.8L228.29 123.288C230.81 122.184 232.13 119.808 232.13 118.008V117.264ZM232.538 117.264H234.074V118.008C234.074 120.12 235.706 122.256 238.442 123.12L237.482 124.608C234.314 123.528 232.538 120.888 232.538 118.008V117.264ZM250.32 103.656C255 103.656 257.952 105.192 257.952 107.76C257.952 110.328 255 111.84 250.32 111.84C245.616 111.84 242.688 110.328 242.688 107.76C242.688 105.192 245.616 103.656 250.32 103.656ZM250.32 105.24C246.864 105.24 244.728 106.152 244.728 107.76C244.728 109.344 246.864 110.28 250.32 110.28C253.752 110.28 255.912 109.344 255.912 107.76C255.912 106.152 253.752 105.24 250.32 105.24ZM242.904 117.432H257.712V124.584H242.904V117.432ZM255.768 119.04H244.872V122.976H255.768V119.04ZM240.504 113.712H260.112V115.32H240.504V113.712ZM271.39 111.6H275.494V113.256H271.39V111.6ZM279.118 103.176H281.038V124.872H279.118V103.176ZM274.822 103.632H276.718V123.792H274.822V103.632ZM267.478 104.976C270.286 104.976 272.11 107.88 272.11 112.536C272.11 117.192 270.286 120.096 267.478 120.096C264.67 120.096 262.87 117.192 262.87 112.536C262.87 107.88 264.67 104.976 267.478 104.976ZM267.478 106.824C265.774 106.824 264.694 109.032 264.694 112.536C264.694 116.04 265.774 118.248 267.478 118.248C269.206 118.248 270.286 116.04 270.286 112.536C270.286 109.032 269.206 106.824 267.478 106.824ZM287.156 113.304H302.06V114.936H287.156V113.304ZM284.684 120.48H304.34V122.16H284.684V120.48ZM293.468 114H295.46V121.152H293.468V114ZM287.156 104.904H301.844V106.536H289.148V114.024H287.156V104.904ZM313.09 116.016H332.77V117.648H313.09V116.016ZM321.874 116.784H323.842V124.872H321.874V116.784ZM315.562 104.04H317.554V107.016H328.282V104.04H330.25V113.424H315.562V104.04ZM317.554 108.624V111.816H328.282V108.624H317.554ZM350.024 103.176H352.016V115.464H350.024V103.176ZM351.464 108.48H355.232V110.112H351.464V108.48ZM336.176 112.584H337.856C342.32 112.584 344.84 112.464 347.744 111.864L347.96 113.496C344.984 114.096 342.416 114.24 337.856 114.24H336.176V112.584ZM336.176 104.616H345.728V106.248H338.144V113.52H336.176V104.616ZM338.384 116.616H352.016V124.584H338.384V116.616ZM350.072 118.224H340.328V122.952H350.072V118.224ZM372.102 103.176H374.094V115.464H372.102V103.176ZM373.542 108.456H377.31V110.112H373.542V108.456ZM366.102 104.568H368.214C368.214 110.04 364.398 113.976 358.014 115.704L357.246 114.12C362.862 112.584 366.102 109.44 366.102 105.456V104.568ZM358.182 104.568H367.206V106.176H358.182V104.568ZM360.438 116.496H374.094V124.584H360.438V116.496ZM372.126 118.104H362.406V122.952H372.126V118.104ZM388.172 115.896H390.044V118.608H393.836V115.896H395.684V124.584H388.172V115.896ZM390.044 120.096V123.024H393.836V120.096H390.044ZM399.884 115.776H401.42V117.576C401.42 120.528 399.932 123.504 396.932 124.776L395.924 123.264C398.54 122.16 399.884 119.784 399.884 117.576V115.776ZM400.292 115.776H401.828V117.576C401.828 119.904 403.172 122.256 405.788 123.264L404.78 124.776C401.756 123.528 400.292 120.648 400.292 117.576V115.776ZM396.596 108.264H402.428V109.92H396.596V108.264ZM391.604 104.136C394.844 104.136 397.196 106.152 397.196 109.128C397.196 112.08 394.844 114.12 391.604 114.12C388.364 114.12 386.012 112.08 386.012 109.128C386.012 106.152 388.364 104.136 391.604 104.136ZM391.604 105.792C389.468 105.792 387.932 107.16 387.932 109.128C387.932 111.072 389.468 112.464 391.604 112.464C393.74 112.464 395.276 111.072 395.276 109.128C395.276 107.16 393.74 105.792 391.604 105.792ZM401.54 103.176H403.532V114.672H401.54V103.176ZM410.418 109.68H425.154V111.312H410.418V109.68ZM407.754 114.216H427.434V115.848H407.754V114.216ZM410.418 103.968H412.386V110.496H410.418V103.968ZM410.274 122.712H425.274V124.344H410.274V122.712ZM410.274 118.008H412.242V123.144H410.274V118.008ZM436.184 112.416H455.792V114.024H436.184V112.416ZM438.56 115.968H453.296V120.936H440.576V123.576H438.608V119.472H451.328V117.504H438.56V115.968ZM438.608 123.096H453.944V124.632H438.608V123.096ZM444.848 104.664H446.6V105.36C446.6 108.696 442.52 110.88 437.888 111.312L437.24 109.8C441.248 109.44 444.848 107.688 444.848 105.36V104.664ZM445.424 104.664H447.152V105.36C447.152 107.688 450.752 109.44 454.76 109.8L454.112 111.312C449.504 110.88 445.424 108.696 445.424 105.36V104.664ZM437.984 103.992H454.04V105.576H437.984V103.992ZM474.126 103.176H476.118V124.872H474.126V103.176ZM469.062 111.864H475.014V113.52H469.062V111.864ZM467.166 105.504H469.134C469.134 111.696 466.566 117.168 459.366 120.768L458.262 119.208C464.574 116.112 467.166 111.504 467.166 105.84V105.504ZM459.198 105.504H468.222V107.136H459.198V105.504ZM480.34 114.168H500.02V115.8H480.34V114.168ZM489.316 115.2H491.332V120.192H489.316V115.2ZM482.836 122.736H497.836V124.392H482.836V122.736ZM482.836 118.056H484.828V123.192H482.836V118.056ZM490.156 103.704C494.74 103.704 497.764 105.384 497.764 108.072C497.764 110.76 494.74 112.44 490.156 112.44C485.548 112.44 482.548 110.76 482.548 108.072C482.548 105.384 485.548 103.704 490.156 103.704ZM490.156 105.336C486.844 105.336 484.66 106.392 484.66 108.072C484.66 109.776 486.844 110.808 490.156 110.808C493.468 110.808 495.652 109.776 495.652 108.072C495.652 106.392 493.468 105.336 490.156 105.336ZM508.77 114.624H528.426V116.256H508.77V114.624ZM517.746 115.44H519.738V120.432H517.746V115.44ZM511.266 122.76H526.242V124.392H511.266V122.76ZM511.266 118.512H513.234V123.384H511.266V118.512ZM511.386 103.848H513.354V106.608H523.842V103.848H525.834V112.536H511.386V103.848ZM513.354 108.168V110.928H523.842V108.168H513.354ZM537.952 104.184C541.192 104.184 543.496 105.984 543.496 108.648C543.496 111.288 541.192 113.136 537.952 113.136C534.736 113.136 532.432 111.288 532.432 108.648C532.432 105.984 534.736 104.184 537.952 104.184ZM537.952 105.84C535.84 105.84 534.328 106.992 534.328 108.648C534.328 110.328 535.84 111.456 537.952 111.456C540.064 111.456 541.576 110.328 541.576 108.648C541.576 106.992 540.064 105.84 537.952 105.84ZM537.064 115.536H539.056V124.2H537.064V115.536ZM546.664 103.176H548.632V124.896H546.664V103.176ZM531.088 116.616L530.824 114.936C534.856 114.936 540.352 114.888 545.128 114.168L545.272 115.656C540.376 116.544 535.048 116.616 531.088 116.616ZM568.742 103.176H570.734V124.872H568.742V103.176ZM562.382 105.504H564.35C564.35 111.792 561.518 117.288 554.27 120.84L553.214 119.232C559.478 116.208 562.382 111.6 562.382 105.84V105.504ZM554.198 105.504H563.246V107.136H554.198V105.504ZM583.812 111.6H587.916V113.256H583.812V111.6ZM591.54 103.176H593.46V124.872H591.54V103.176ZM587.244 103.632H589.14V123.792H587.244V103.632ZM579.9 104.976C582.708 104.976 584.532 107.88 584.532 112.536C584.532 117.192 582.708 120.096 579.9 120.096C577.092 120.096 575.292 117.192 575.292 112.536C575.292 107.88 577.092 104.976 579.9 104.976ZM579.9 106.824C578.196 106.824 577.116 109.032 577.116 112.536C577.116 116.04 578.196 118.248 579.9 118.248C581.628 118.248 582.708 116.04 582.708 112.536C582.708 109.032 581.628 106.824 579.9 106.824ZM607.93 110.52H613.978V112.152H607.93V110.52ZM602.698 105.048H604.33V108.912C604.33 113.784 601.762 118.44 598.33 120.288L597.058 118.704C600.25 117.12 602.698 112.944 602.698 108.912V105.048ZM603.082 105.048H604.69V108.912C604.69 112.872 607.138 116.808 610.282 118.296L609.106 119.904C605.602 118.128 603.082 113.664 603.082 108.912V105.048ZM612.994 103.152H614.962V124.896H612.994V103.152ZM51.968 135.216H53.864V140.52H58.4V135.216H60.248V149.448H51.968V135.216ZM53.864 142.128V147.816H58.4V142.128H53.864ZM67.712 133.176H69.632V154.872H67.712V133.176ZM64.232 141.768H68.408V143.4H64.232V141.768ZM62.912 133.632H64.808V153.792H62.912V133.632ZM73.2541 145.608H92.9341V147.24H73.2541V145.608ZM82.0381 146.616H84.0061V154.872H82.0381V146.616ZM83.0461 134.04C87.5821 134.04 90.6301 135.888 90.6301 138.792C90.6301 141.696 87.5821 143.544 83.0461 143.544C78.5341 143.544 75.4621 141.696 75.4621 138.792C75.4621 135.888 78.5341 134.04 83.0461 134.04ZM83.0461 135.648C79.7341 135.648 77.4781 136.872 77.4781 138.792C77.4781 140.712 79.7341 141.936 83.0461 141.936C86.3581 141.936 88.5901 140.712 88.5901 138.792C88.5901 136.872 86.3581 135.648 83.0461 135.648ZM105.316 138.36H112.012V139.992H105.316V138.36ZM105.316 144.336H112.012V145.992H105.316V144.336ZM96.2203 135.288H106.084V149.4H96.2203V135.288ZM104.116 136.896H98.1643V147.792H104.116V136.896ZM111.244 133.152H113.212V154.896H111.244V133.152ZM135.282 139.152H140.754V140.784H135.282V139.152ZM139.626 133.2H141.618V149.088H139.626V133.2ZM127.77 152.76H142.218V154.392H127.77V152.76ZM127.77 147.696H129.762V153.6H127.77V147.696ZM129.306 135.888H130.938V137.64C130.938 141.576 128.49 144.984 124.866 146.328L123.834 144.744C127.074 143.592 129.306 140.712 129.306 137.64V135.888ZM129.69 135.888H131.298V137.616C131.298 140.424 133.41 143.16 136.554 144.264L135.546 145.824C132.018 144.552 129.69 141.288 129.69 137.616V135.888ZM124.458 134.952H136.05V136.56H124.458V134.952ZM155.584 146.856C160.192 146.856 163.144 148.368 163.144 150.864C163.144 153.336 160.192 154.824 155.584 154.824C150.952 154.824 148.024 153.336 148.024 150.864C148.024 148.368 150.952 146.856 155.584 146.856ZM155.584 148.416C152.176 148.416 149.992 149.352 149.992 150.864C149.992 152.352 152.176 153.288 155.584 153.288C158.992 153.288 161.152 152.352 161.152 150.864C161.152 149.352 158.992 148.416 155.584 148.416ZM148.192 134.256H162.16V135.888H148.192V134.256ZM145.864 143.28H165.448V144.888H145.864V143.28ZM153.904 139.104H155.872V143.736H153.904V139.104ZM161.008 134.256H162.952V136.104C162.952 137.856 162.952 139.608 162.376 141.864L160.408 141.624C161.008 139.392 161.008 137.808 161.008 136.104V134.256ZM190.062 133.176H192.054V144.408H190.062V133.176ZM178.038 145.512H192.078V150.72H180.03V153.696H178.086V149.232H190.11V147.072H178.038V145.512ZM178.086 153.048H192.798V154.632H178.086V153.048ZM179.934 133.8H181.59V135.456C181.59 139.464 179.094 142.872 175.422 144.216L174.438 142.632C177.702 141.48 179.934 138.6 179.934 135.456V133.8ZM180.294 133.8H181.926V135.456C181.926 138.456 184.206 141.168 187.422 142.224L186.438 143.784C182.79 142.536 180.294 139.344 180.294 135.456V133.8ZM197.26 143.928H198.82C203.092 143.928 205.204 143.856 207.796 143.4L208.012 145.008C205.324 145.488 203.164 145.56 198.82 145.56H197.26V143.928ZM197.212 134.472H206.572V140.64H199.228V144.912H197.26V139.08H204.604V136.104H197.212V134.472ZM212.212 133.2H214.204V146.52H212.212V133.2ZM208.012 136.392H212.668V138.024H208.012V136.392ZM208.012 140.88H212.668V142.512H208.012V140.88ZM199.684 147.696H214.204V154.92H212.212V149.328H199.684V147.696ZM228.242 133.536C233.018 133.536 235.874 134.88 235.874 137.304C235.874 139.728 233.018 141.072 228.242 141.072C223.442 141.072 220.61 139.728 220.61 137.304C220.61 134.88 223.442 133.536 228.242 133.536ZM228.242 135.048C224.69 135.048 222.65 135.864 222.65 137.304C222.65 138.744 224.69 139.56 228.242 139.56C231.77 139.56 233.81 138.744 233.81 137.304C233.81 135.864 231.77 135.048 228.242 135.048ZM218.426 142.512H238.034V144.12H218.426V142.512ZM220.802 145.968H235.538V150.864H222.818V153.504H220.85V149.424H233.57V147.504H220.802V145.968ZM220.85 153.072H236.186V154.632H220.85V153.072ZM256.48 135.432H258.4C258.4 141.696 256.192 147.504 248.368 151.344L247.288 149.784C254.152 146.424 256.48 141.576 256.48 135.648V135.432ZM248.464 135.432H257.488V137.04H248.464V135.432ZM256.192 140.808V142.344L247.72 143.136L247.384 141.384L256.192 140.808ZM262.672 133.176H264.664V154.872H262.672V133.176ZM277.742 143.376H279.71V146.712H277.742V143.376ZM278.75 133.44C283.526 133.44 286.382 134.76 286.382 137.184C286.382 139.608 283.526 140.952 278.75 140.952C273.95 140.952 271.118 139.608 271.118 137.184C271.118 134.76 273.95 133.44 278.75 133.44ZM278.75 134.952C275.198 134.952 273.158 135.768 273.158 137.184C273.158 138.624 275.198 139.44 278.75 139.44C282.278 139.44 284.318 138.624 284.318 137.184C284.318 135.768 282.278 134.952 278.75 134.952ZM268.934 142.344H288.542V143.976H268.934V142.344ZM271.31 145.968H286.046V150.864H273.326V153.504H271.358V149.424H284.078V147.504H271.31V145.968ZM271.358 153.072H286.694V154.632H271.358V153.072ZM306.148 133.944H307.9V135.144C307.9 139.296 303.676 142.272 299.164 143.04L298.372 141.432C302.332 140.832 306.148 138.24 306.148 135.144V133.944ZM306.508 133.944H308.236V135.144C308.236 138.168 312.1 140.832 316.012 141.432L315.22 143.04C310.756 142.272 306.508 139.248 306.508 135.144V133.944ZM306.148 146.616H308.116V154.872H306.148V146.616ZM297.388 145.392H316.996V147.048H297.388V145.392ZM331.217 146.52H332.753V147.696C332.753 150.528 330.977 153.384 327.857 154.584L326.849 153.096C329.585 152.112 331.217 149.784 331.217 147.696V146.52ZM331.649 146.52H333.137V147.696C333.137 149.88 334.433 152.208 337.025 153.264L336.185 154.776C333.065 153.552 331.649 150.576 331.649 147.696V146.52ZM339.233 146.52H340.721V147.696C340.721 150.24 339.281 153.456 336.185 154.776L335.345 153.264C337.913 152.088 339.233 149.568 339.233 147.696V146.52ZM339.641 146.52H341.177V147.696C341.177 149.928 342.785 152.16 345.545 153.096L344.537 154.584C341.369 153.432 339.641 150.696 339.641 147.696V146.52ZM341.585 133.2H343.601V145.584H341.585V133.2ZM331.961 134.448C335.249 134.448 337.601 136.512 337.601 139.512C337.601 142.512 335.249 144.552 331.961 144.552C328.673 144.552 326.297 142.512 326.297 139.512C326.297 136.512 328.673 134.448 331.961 134.448ZM331.961 136.104C329.801 136.104 328.241 137.496 328.241 139.512C328.241 141.528 329.801 142.896 331.961 142.896C334.121 142.896 335.681 141.528 335.681 139.512C335.681 137.496 334.121 136.104 331.961 136.104ZM353.415 146.4H354.975V147.648C354.975 150.528 353.199 153.408 350.079 154.608L349.071 153.12C351.807 152.112 353.415 149.76 353.415 147.648V146.4ZM353.871 146.4H355.359V147.648C355.359 149.856 356.631 152.232 359.247 153.288L358.407 154.8C355.263 153.576 353.871 150.552 353.871 147.648V146.4ZM361.455 146.4H362.919V147.648C362.919 150.216 361.503 153.48 358.407 154.8L357.543 153.288C360.135 152.088 361.455 149.544 361.455 147.648V146.4ZM361.839 146.4H363.399V147.648C363.399 149.928 364.983 152.184 367.767 153.12L366.735 154.608C363.591 153.456 361.839 150.672 361.839 147.648V146.4ZM358.551 138.6H364.287V140.256H358.551V138.6ZM353.799 134.4C356.991 134.4 359.367 136.488 359.367 139.488C359.367 142.464 356.991 144.552 353.799 144.552C350.607 144.552 348.255 142.464 348.255 139.488C348.255 136.488 350.607 134.4 353.799 134.4ZM353.799 136.056C351.687 136.056 350.151 137.496 350.151 139.488C350.151 141.48 351.687 142.896 353.799 142.896C355.887 142.896 357.447 141.48 357.447 139.488C357.447 137.496 355.887 136.056 353.799 136.056ZM363.735 133.176H365.727V145.536H363.735V133.176ZM372.445 146.184H374.413V148.704H385.021V146.184H387.013V154.584H372.445V146.184ZM374.413 150.24V152.976H385.021V150.24H374.413ZM369.949 143.064H389.557V144.672H369.949V143.064ZM378.757 133.416H380.461V134.376C380.461 138.144 376.261 140.856 371.797 141.528L371.077 139.968C374.989 139.44 378.757 137.112 378.757 134.376V133.416ZM379.069 133.416H380.773V134.376C380.773 137.064 384.589 139.44 388.453 139.968L387.709 141.528C383.293 140.856 379.069 138.096 379.069 134.376V133.416ZM407.82 133.176H409.812V154.872H407.82V133.176ZM393.42 135.288H395.388V148.728H393.42V135.288ZM393.42 147.552H395.196C398.484 147.552 401.916 147.312 405.588 146.544L405.828 148.248C402.06 149.016 398.628 149.28 395.196 149.28H393.42V147.552ZM428.794 133.152H430.81V154.896H428.794V133.152ZM430.33 141.72H434.362V143.4H430.33V141.72ZM415.042 147.816H416.746C420.754 147.816 423.562 147.672 426.802 147.072L427.018 148.752C423.682 149.376 420.826 149.496 416.746 149.496H415.042V147.816ZM415.042 135.264H425.122V136.896H417.01V148.56H415.042V135.264ZM438.4 153.162C437.934 153.162 437.533 152.997 437.198 152.668C436.863 152.332 436.695 151.929 436.695 151.457C436.695 150.991 436.863 150.594 437.198 150.264C437.533 149.929 437.934 149.761 438.4 149.761C438.866 149.761 439.266 149.929 439.602 150.264C439.937 150.594 440.104 150.991 440.104 151.457C440.104 151.77 440.025 152.057 439.866 152.318C439.712 152.574 439.508 152.778 439.252 152.932C438.996 153.085 438.712 153.162 438.4 153.162Z" fill="black"/>
<path d="M51.728 54.328H54.728V57.448H57.56V54.328H60.536V65.08H51.728V54.328ZM54.728 59.896V62.584H57.56V59.896H54.728ZM66.872 52.936H69.896V66.304H66.872V52.936ZM64.208 58.336H67.736V60.928H64.208V58.336ZM62.168 53.32H65.144V66.208H62.168V53.32ZM54.632 67.312H69.896V75.136H66.728V69.856H54.632V67.312ZM80.8861 55.264H83.7181V55.792C83.7181 59.32 80.7421 62.296 75.0781 62.944L73.9261 60.424C78.7501 59.896 80.8861 57.712 80.8861 55.792V55.264ZM82.4461 55.264H85.2781V55.792C85.2781 57.736 87.4381 59.896 92.2621 60.424L91.0861 62.944C85.4461 62.296 82.4461 59.344 82.4461 55.792V55.264ZM74.8621 53.872H91.3261V56.368H74.8621V53.872ZM73.0381 63.976H93.1501V66.52H73.0381V63.976ZM81.7501 65.584H84.9661V70.264H81.7501V65.584ZM75.3661 72.208H90.9421V74.752H75.3661V72.208ZM75.3661 68.368H78.5341V73.096H75.3661V68.368ZM95.1883 54.808H107.38V57.304H95.1883V54.808ZM101.428 58.072C104.404 58.072 106.636 59.848 106.636 62.32C106.636 64.792 104.404 66.568 101.428 66.568C98.4523 66.568 96.2203 64.792 96.2203 62.32C96.2203 59.848 98.4523 58.072 101.428 58.072ZM101.428 60.472C100.132 60.472 99.1963 61.144 99.1963 62.32C99.1963 63.496 100.132 64.168 101.428 64.168C102.724 64.168 103.684 63.496 103.684 62.32C103.684 61.144 102.724 60.472 101.428 60.472ZM99.8443 52.72H103.036V56.584H99.8443V52.72ZM110.524 52.912H113.716V67.048H110.524V52.912ZM107.668 57.88H111.724V60.4H107.668V57.88ZM107.596 62.152H111.676V64.696H107.596V62.152ZM98.5723 68.056H113.716V75.136H110.524V70.576H98.5723V68.056Z" fill="black"/>
<path d="M137.943 67.1477H136.17C136.102 66.7689 135.975 66.4356 135.79 66.1477C135.604 65.8598 135.377 65.6155 135.108 65.4148C134.839 65.214 134.538 65.0625 134.205 64.9602C133.875 64.858 133.525 64.8068 133.153 64.8068C132.483 64.8068 131.883 64.9754 131.352 65.3125C130.826 65.6496 130.409 66.1439 130.102 66.7955C129.799 67.447 129.648 68.2424 129.648 69.1818C129.648 70.1288 129.799 70.928 130.102 71.5795C130.409 72.2311 130.828 72.7235 131.358 73.0568C131.888 73.3902 132.485 73.5568 133.148 73.5568C133.515 73.5568 133.864 73.5076 134.193 73.4091C134.527 73.3068 134.828 73.1572 135.097 72.9602C135.366 72.7633 135.593 72.5227 135.778 72.2386C135.968 71.9508 136.098 71.6212 136.17 71.25L137.943 71.2557C137.848 71.8277 137.665 72.3542 137.392 72.8352C137.123 73.3125 136.777 73.7254 136.352 74.0739C135.932 74.4186 135.451 74.6856 134.909 74.875C134.367 75.0644 133.777 75.1591 133.136 75.1591C132.129 75.1591 131.231 74.9205 130.443 74.4432C129.655 73.9621 129.034 73.2746 128.58 72.3807C128.129 71.4867 127.903 70.4205 127.903 69.1818C127.903 67.9394 128.131 66.8731 128.585 65.983C129.04 65.089 129.661 64.4034 130.449 63.9261C131.237 63.4451 132.133 63.2045 133.136 63.2045C133.754 63.2045 134.33 63.2936 134.864 63.4716C135.402 63.6458 135.884 63.9034 136.312 64.2443C136.741 64.5814 137.095 64.9943 137.375 65.483C137.655 65.9678 137.845 66.5227 137.943 67.1477ZM149.436 63.3636V75H147.822L141.908 66.4659H141.8V75H140.044V63.3636H141.669L147.589 71.9091H147.697V63.3636H149.436ZM158.344 66.4205C158.283 65.8826 158.033 65.4659 157.594 65.1705C157.154 64.8712 156.601 64.7216 155.935 64.7216C155.457 64.7216 155.045 64.7973 154.696 64.9489C154.348 65.0966 154.077 65.3011 153.884 65.5625C153.694 65.8201 153.599 66.1136 153.599 66.4432C153.599 66.7197 153.664 66.9583 153.793 67.1591C153.925 67.3598 154.098 67.5284 154.31 67.6648C154.526 67.7973 154.757 67.9091 155.003 68C155.249 68.0871 155.486 68.1591 155.713 68.2159L156.849 68.5114C157.221 68.6023 157.601 68.7254 157.991 68.8807C158.382 69.036 158.743 69.2405 159.077 69.4943C159.41 69.7481 159.679 70.0625 159.884 70.4375C160.092 70.8125 160.196 71.2614 160.196 71.7841C160.196 72.4432 160.026 73.0284 159.685 73.5398C159.348 74.0511 158.857 74.4545 158.213 74.75C157.573 75.0455 156.798 75.1932 155.889 75.1932C155.018 75.1932 154.264 75.0549 153.628 74.7784C152.991 74.5019 152.493 74.1098 152.134 73.6023C151.774 73.0909 151.575 72.4848 151.537 71.7841H153.298C153.332 72.2045 153.469 72.5549 153.707 72.8352C153.95 73.1117 154.259 73.3182 154.634 73.4545C155.012 73.5871 155.427 73.6534 155.878 73.6534C156.374 73.6534 156.815 73.5758 157.202 73.4205C157.592 73.2614 157.899 73.0417 158.122 72.7614C158.346 72.4773 158.457 72.1458 158.457 71.767C158.457 71.4223 158.359 71.1402 158.162 70.9205C157.969 70.7008 157.705 70.5189 157.372 70.375C157.043 70.2311 156.67 70.1042 156.253 69.9943L154.878 69.6193C153.946 69.3655 153.207 68.9924 152.662 68.5C152.12 68.0076 151.849 67.3561 151.849 66.5455C151.849 65.875 152.031 65.2898 152.395 64.7898C152.759 64.2898 153.251 63.9015 153.872 63.625C154.493 63.3447 155.194 63.2045 155.974 63.2045C156.762 63.2045 157.457 63.3428 158.06 63.6193C158.666 63.8958 159.143 64.2765 159.491 64.7614C159.84 65.2424 160.022 65.7955 160.037 66.4205H158.344ZM170.21 75.1591C169.498 75.1591 168.858 75.0227 168.29 74.75C167.725 74.4735 167.275 74.0947 166.938 73.6136C166.6 73.1326 166.42 72.5833 166.398 71.9659H168.102C168.144 72.4659 168.366 72.8769 168.767 73.1989C169.169 73.5208 169.65 73.6818 170.21 73.6818C170.657 73.6818 171.053 73.5795 171.398 73.375C171.746 73.1667 172.019 72.8807 172.216 72.517C172.417 72.1534 172.517 71.7386 172.517 71.2727C172.517 70.7992 172.415 70.3769 172.21 70.0057C172.006 69.6345 171.723 69.3428 171.364 69.1307C171.008 68.9186 170.598 68.8106 170.136 68.8068C169.784 68.8068 169.43 68.8674 169.074 68.9886C168.718 69.1098 168.43 69.2689 168.21 69.4659L166.602 69.2273L167.256 63.3636H173.653V64.8693H168.716L168.347 68.125H168.415C168.642 67.9053 168.943 67.7216 169.318 67.5739C169.697 67.4261 170.102 67.3523 170.534 67.3523C171.242 67.3523 171.873 67.5208 172.426 67.858C172.983 68.1951 173.42 68.6553 173.739 69.2386C174.061 69.8182 174.22 70.4848 174.216 71.2386C174.22 71.9924 174.049 72.6648 173.705 73.2557C173.364 73.8466 172.89 74.3125 172.284 74.6534C171.682 74.9905 170.991 75.1591 170.21 75.1591ZM186.5 61.784H187.828V76.248H186.5V61.784ZM182.26 63.336H183.572C183.572 67.528 181.684 71.192 176.852 73.56L176.148 72.488C180.324 70.472 182.26 67.4 182.26 63.56V63.336ZM176.804 63.336H182.836V64.424H176.804V63.336Z" fill="black"/>
</g>
<defs>
<filter id="filter0_d_423_198" x="0" y="0" width="708" height="228" filterUnits="userSpaceOnUse" color-interpolation-filters="sRGB">
<feFlood flood-opacity="0" result="BackgroundImageFix"/>
<feColorMatrix in="SourceAlpha" type="matrix" values="0 0 0 0 0 0 0 0 0 0 0 0 0 0 0 0 0 0 127 0" result="hardAlpha"/>
<feOffset dx="4" dy="4"/>
<feGaussianBlur stdDeviation="2"/>
<feComposite in2="hardAlpha" operator="out"/>
<feColorMatrix type="matrix" values="0 0 0 0 0 0 0 0 0 0 0 0 0 0 0 0 0 0 0.25 0"/>
<feBlend mode="normal" in2="BackgroundImageFix" result="effect1_dropShadow_423_198"/>
<feBlend mode="normal" in="SourceGraphic" in2="effect1_dropShadow_423_198" result="shape"/>
</filter>
</defs>
</svg>
